<?xml version="1.0" encoding="utf-8"?>
<svg version="1.1" xmlns:xlink="http://www.w3.org/1999/xlink" width="52px" height="24px" xmlns="http://www.w3.org/2000/svg">
  <g transform="matrix(1 0 0 1 0 -18 )">
    <path d="M 0 24  L 0 0  L 4 0  L 4 24  L 0 24  Z M 48 24  L 48 8  L 52 8  L 52 24  L 48 24  Z M 24 20  L 28 20  L 28 24  L 24 24  L 24 20  Z M 52 0  L 52 4  L 48 4  L 48 0  L 52 0  Z M 28 16  L 24 16  L 24 0  L 28 0  L 28 16  Z M 32 12  L 32 0  L 36 0  L 36 4  L 44 4.00000013454712  L 44 8  L 36 8  L 36 12  C 36 16.48  39.52 20  44 20.0002090866458  L 44 24  C 37.28 24  32 18.72  32 12  Z M 8 12  L 15.3333333333333 24  L 20 24  L 12.6666666666667 12  L 20 0  L 15.3333333333333 0  L 8 12  Z " fill-rule="nonzero" fill="#000000" stroke="none" transform="matrix(1 0 0 1 0 18 )" />
  </g>
</svg>