<?xml version="1.0" encoding="utf-8"?>
<svg version="1.1" xmlns:xlink="http://www.w3.org/1999/xlink" width="312px" height="144px" xmlns="http://www.w3.org/2000/svg">
  <g transform="matrix(1 0 0 1 -164 0 )">
    <path d="M 24 0  L 24 144  L 0 144  L 0 0  L 24 0  Z M 312 48  L 312 144  L 288 144  L 288 48  L 312 48  Z M 168 144  L 144 144  L 144 120  L 168 120  L 168 144  Z M 288 24  L 288 0  L 312 0  L 312 24  L 288 24  Z M 144 0  L 168 0  L 168 96  L 144 96  L 144 0  Z M 216 0  L 216 24  L 264 24  L 264 48  L 216 48  L 216 72  C 216 98.88  237.12 120  264 120.001254519875  L 264 144  C 223.68 144  192 112.32  192 72  L 192 0  L 216 0  Z " fill-rule="nonzero" fill="#ffffff" stroke="none" transform="matrix(1 0 0 1 164 0 )" />
  </g>
</svg>