<?xml version="1.0" encoding="utf-8"?>
<svg version="1.1" xmlns:xlink="http://www.w3.org/1999/xlink" width="100px" height="40px" xmlns="http://www.w3.org/2000/svg">
  <g>
    <path d="M 2 20  A 18 18 0 0 1 20 2 L 80 2  A 18 18 0 0 1 98 20 A 18 18 0 0 1 80 38 L 20 38  A 18 18 0 0 1 2 20 Z " fill-rule="nonzero" fill="#70b603" stroke="none" fill-opacity="0" />
    <path d="M 1 20  A 19 19 0 0 1 20 1 L 80 1  A 19 19 0 0 1 99 20 A 19 19 0 0 1 80 39 L 20 39  A 19 19 0 0 1 1 20 Z " stroke-width="2" stroke="#ffffff" fill="none" stroke-opacity="0.2" />
  </g>
</svg>