<?xml version="1.0" encoding="utf-8"?>
<svg version="1.1" xmlns:xlink="http://www.w3.org/1999/xlink" width="60px" height="60px" xmlns="http://www.w3.org/2000/svg">
  <g transform="matrix(1 0 0 1 -200 0 )">
    <path d="M 230 1.5  C 245.96 1.5  258.5 14.04  258.5 30  C 258.5 45.96  245.96 58.5  230 58.5  C 214.04 58.5  201.5 45.96  201.5 30  C 201.5 14.04  214.04 1.5  230 1.5  Z " fill-rule="nonzero" fill="#ffffff" stroke="none" fill-opacity="0" />
    <path d="M 230 1  C 246.24 1  259 13.76  259 30  C 259 46.24  246.24 59  230 59  C 213.76 59  201 46.24  201 30  C 201 13.76  213.76 1  230 1  Z " stroke-width="2" stroke="#ffffff" fill="none" stroke-opacity="0.0980392156862745" />
  </g>
</svg>