<?xml version="1.0" encoding="utf-8"?>
<svg version="1.1" xmlns:xlink="http://www.w3.org/1999/xlink" width="36px" height="32px" xmlns="http://www.w3.org/2000/svg">
  <g transform="matrix(1 0 0 1 -25 -24 )">
    <path d="M 1.40938362204725 31.9030474567279  C 0.62012878740158 31.6423010446894  0.131542456692916 31.1021834791251  0.0375835590551201 30.3013195015223  C -0.0563753385826756 29.4818307824322  0.375835622047243 28.8672142509186  1.07113155905511 28.4574698757655  C 2.5556822992126 27.5821069322135  3.98385773228346 26.6136202500088  5.54357559055118 25.9245047525459  C 8.55026066141732 24.5648984678915  10.8428580472441 22.5348013960455  12.308617007874 19.5734671561855  C 12.3649923464567 19.3499702271216  12.5529101732283 19.1823475537358  12.7784115590551 18.847102175748  C 13.2669978897638 19.9645867898513  14.0938362834646 20.4860796139283  15.0522171338583 20.8585744748906  C 15.5595952440945 21.0448219209799  15.6347623622047 21.2683188500437  15.3153020787402 21.7339374184427  C 14.4132965669291 23.0376694786352  13.5676663937008 24.3786510218023  12.7032444409449 25.7010078234821  C 12.4589512755906 26.0735026844444  12.139490992126 26.3714985794576  11.7636553385827 26.5949955397375  C 8.83213738582678 28.2712224608924  5.91941121259843 29.9474493820473  3.00668507086615 31.6050515617148  C 2.51809874015748 31.8844227152406  2.01072062992126 32.1079196443045  1.40938362204725 31.9030474567279  Z M 21.479006488189 23.894407711916  C 22.080343496063 22.9259210297113  22.0991352755906 22.907296288224  21.0467955275591 22.4044282056343  C 19.0736584566929 21.4545662649169  17.1193131653543 20.5047043554156  15.1461760629921 19.5548424146982  C 13.5864581732283 18.79122792007  13.342165007874 17.3757474109536  14.6200061732283 16.2210133138758  C 16.3488500787402 14.6565348416448  18.1340693543307 13.1293058836045  19.8817050393701 11.5834521528609  C 20.1823735433071 11.3040809993351  20.5394173858268 11.0992088117585  20.7273352125984 10.6708396951181  C 19.6374118740157 9.96309942495188  18.5286967559055 9.25535918600175  17.4575651968504 8.51036943286089  C 17.0629377952756 8.23099827933508  16.7058939212598 8.30549724528434  16.311266519685 8.41724572542432  C 14.7703404094488 8.84561484206474  13.2482061102362 9.29260866897637  11.70728 9.7209777856168  C 10.4670223937008 10.0562231636046  9.47105798425196 9.62785407818023  9.17038948031496 8.6593673959755  C 8.83213741732284 7.54188278187226  9.39589086614173 6.57339609966754  10.673732 6.18227649721784  C 12.6468690708661 5.5862847071916  14.6387979527559 5.06479188311461  16.611935023622 4.48742480335958  C 17.3260227401575 4.28255261578302  17.9649433070866 4.41292583741032  18.5662803149606 4.82267021256343  C 20.6145845354331 6.18227649721784  22.7004722834646 7.52325804038495  24.748776503937 8.88286432503937  C 26.0454094488189 9.75822726859143  26.1205765669291 11.006085104322  24.9366943307087 12.0676954939633  C 23.1702668346457 13.6507987076815  21.3850475905512 15.2152771799125  19.5998283149606 16.7611308794401  C 19.1300337637795 17.1522504818898  18.9984913070866 17.3571226694663  19.6937872440945 17.6737433059668  C 21.5165900787402 18.4932320250569  23.3018093228347 19.3872197100962  25.0870285669291 20.2625826848644  C 26.7219135748032 21.0448219209799  27.0037902992126 22.0133086031846  26.0642012283465 23.5405375612248  C 24.579650488189 25.9431294940332  23.0763079370079 28.3457214268416  21.5917571968504 30.74831335965  C 21.1219626456693 31.5119278542782  20.5206256377953 32.0892949028171  19.5622447559055 31.9589216811898  C 18.1716529133858 31.7912989765879  17.5139405354331 30.3385689844969  18.2844035905512 29.0348369555206  C 19.3179515905512 27.3027358099038  20.4078749291339 25.6078841160455  21.479006488189 23.894407711916  Z M 28.0373382992126 8.6593673959755  C 25.6695737952756 8.6593673959755  23.6776449448819 6.70376932129484  23.6776449448819 4.33842687146107  C 23.6776449448819 2.01033390460192  25.6883656062992 -0.00113839454068057  28.0373382992126 0.0174863469466345  C 30.4051028031496 0.0174863469466345  32.3970316535433 1.99170916311461  32.3970316535433 4.33842687146107  C 32.3782398740157 6.70376932129484  30.4051028031496 8.6593673959755  28.0373382992126 8.6593673959755  Z M 28.018546519685 15.4946483022222  C 27.2104999055118 14.9731554781452  26.4024532913386 14.4144131710936  25.5944066771654 13.8929203470166  C 25.2185710551181 13.6507986764654  25.1246121259843 13.4459264888889  25.5380313385827 13.1479306250919  C 26.4588286299213 12.4960646106037  26.9286231811024 11.5834521528609  27.0413738897638 10.4100932830796  C 27.417209511811 10.6522149536308  27.7742533858268 10.8198376582327  28.0373382992126 11.0619593287839  C 28.7702177952756 11.7696995989501  29.2588040944882 11.5089531869116  29.8225575748031 10.8198376582327  C 30.6681877480315 9.79547675156606  31.6077768503937 8.82699010057743  32.5285741417323 7.8585034183727  C 33.4493714330709 6.89001673616798  34.5392947716536 6.75964354575678  35.3473413858268 7.46738378470691  C 36.2305551181102 8.23099827933508  36.2117633385827 9.29260866897637  35.2721742677165 10.3355943171304  C 33.8064153070866 11.9559470138233  32.3406563149606 13.5576749690289  30.8373137952756 15.1407781827472  C 29.916516503937 16.1278896064392  29.1460534488189 16.2210133138758  28.018546519685 15.4946483022222  Z " fill-rule="nonzero" fill="#9baaba" stroke="none" fill-opacity="0.6" transform="matrix(1 0 0 1 25 24 )" />
  </g>
</svg>