<?xml version="1.0" encoding="utf-8"?>
<svg version="1.1" xmlns:xlink="http://www.w3.org/1999/xlink" width="1040px" height="60px" xmlns="http://www.w3.org/2000/svg">
  <defs>
    <linearGradient gradientUnits="userSpaceOnUse" x1="0" y1="30" x2="1040" y2="30" id="LinearGradient6643">
      <stop id="Stop6644" stop-color="#23b995" offset="0" />
      <stop id="Stop6645" stop-color="#ffdf2d" offset="1" />
    </linearGradient>
  </defs>
  <g transform="matrix(1 0 0 1 -80 0 )">
    <path d="M 930 0  C 946.465210614064 0  959.472472751527 12.6791444142018  959.984349909375 29  L 1040 29  L 1040 31  L 959.984349910833 31  C 959.472472751527 47.3208555857982  946.465210614064 60  930 60  C 913.534789385936 60  900.527527248473 47.3208555857982  900.015650028098 31  L 689.984349910833 31  C 689.472472751527 47.3208555857982  676.465210614064 60  660 60  C 643.534789385936 60  630.527527248473 47.3208555857982  630.015650088976 31  L 509.984349910833 31  C 509.472472751527 47.3208555857982  496.465210614064 60  480 60  C 463.534789385936 60  450.527527248473 47.3208555857982  450.015650089202 31  L 419.984349910833 31  C 419.472472751527 47.3208555857982  406.465210614064 60  390 60  C 373.534789385936 60  360.527527248473 47.3208555857982  360.015650088976 31  L 239.984349910833 31  C 239.472472751527 47.3208555857982  226.465210614064 60  210 60  C 193.534789385936 60  180.527527248473 47.3208555857982  180.015650088976 31  L 59.984349910833 31  C 59.472472751527 47.3208555857982  46.4652106140638 60  30 60  C 13.5225600007576 60  0.50820710519676 47.3020139531677  0.0145301963433013 30.9636307425288  C 0.00486604802286195 30.643792897509  0 30.3225600007576  0 30  C 0 29.6774399992424  0.00486604802286195 29.356207102491  0.0145301963433013 29.0363692574711  C 0.50820710519676 12.6979860468323  13.5225600007576 0  30 0  C 46.4652106140638 0  59.472472751527 12.6791444142018  59.9843500376922 29  L 180.015650089167 29  C 180.527527248473 12.6791444142018  193.534789385936 0  210 0  C 226.465210614064 0  239.472472751527 12.6791444142018  239.984349749356 29  L 360.015650089167 29  C 360.527527248473 12.6791444142018  373.534789385936 0  390 0  C 406.465210614064 0  419.472472751527 12.6791444142018  419.984351565037 29  L 450.015650089167 29  C 450.527527248473 12.6791444142018  463.534789385936 0  480 0  C 496.465210614064 0  509.472472751527 12.6791444142018  509.98435186361 29  L 630.015650089167 29  C 630.527527248473 12.6791444142018  643.534789385936 0  660 0  C 676.465210614064 0  689.472472751527 12.6791444142018  689.984349958579 29  L 900.015650089167 29  C 900.527527248473 12.6791444142018  913.534789385936 0  930 0  Z " fill-rule="nonzero" fill="url(#LinearGradient6643)" stroke="none" transform="matrix(1 0 0 1 80 0 )" />
  </g>
</svg>