<?xml version="1.0" encoding="utf-8"?>
<svg version="1.1" xmlns:xlink="http://www.w3.org/1999/xlink" width="240px" height="240px" xmlns="http://www.w3.org/2000/svg">
  <g transform="matrix(1 0 0 1 -20 -20 )">
    <path d="M 99.3103448275862 173.793103448276  L 91.0344827586207 173.793103448276  L 91.0344827586207 182.068965517241  L 83 182.068965517241  L 83 157.241379310345  L 75 157.241379310345  L 75 173.793103448276  L 67 173.793103448276  L 67 206  L 82.7586206896552 206  L 82.7586206896552 215  L 67 215  L 67 240  L 91 240  L 91 215.172413793103  L 99.3103448275862 215.172413793103  L 99.3103448275862 206  L 115.862068965517 206  L 115.862068965517 198.620689655172  L 124.137931034483 198.620689655172  L 124.137931034483 206.896551724138  L 132 206.896551724138  L 132 223.448275862069  L 140 223.448275862069  L 140 240  L 157.241379310345 240  L 157.241379310345 231.724137931035  L 165.51724137931 231.724137931035  L 165.51724137931 240  L 173 240  L 173 223.448275862069  L 165.51724137931 223.448275862069  L 165.51724137931 215.172413793103  L 173.793103448276 215.172413793103  L 173.793103448276 206  L 190.344827586207 206  L 190.344827586207 215.172413793103  L 198.620689655172 215.172413793103  L 198.620689655172 223  L 215.172413793103 223  L 215.172413793103 215.172413793103  L 206 215.172413793103  L 206 198.620689655172  L 215 198.620689655172  L 215 182.068965517241  L 206 182.068965517241  L 206 165.51724137931  L 215.172413793103 165.51724137931  L 215.172413793103 157  L 198.620689655172 157  L 198.620689655172 165  L 165.51724137931 165  L 165.51724137931 173  L 140.689655172414 173  L 140.689655172414 165  L 157.241379310345 165  L 157.241379310345 157  L 140.689655172414 157  L 140.689655172414 148.965517241379  L 148.965517241379 148.965517241379  L 148.965517241379 140  L 108 140  L 108 165.51724137931  L 99.3103448275862 165.51724137931  L 99.3103448275862 173.793103448276  Z M 190 83  L 190 67  L 173 67  L 173 42  L 157.241379310345 42  L 157.241379310345 33.1034482758621  L 165.51724137931 33.1034482758621  L 165.51724137931 24.8275862068966  L 157.241379310345 24.8275862068966  L 157.241379310345 17  L 173.793103448276 17  L 173.793103448276 9  L 157.241379310345 9  L 157.241379310345 0  L 148.965517241379 0  L 148.965517241379 8.27586206896552  L 140.689655172414 8.27586206896552  L 140.689655172414 16.551724137931  L 149 16.551724137931  L 149 42  L 116 42  L 116 57.9310344827586  L 107.586206896552 57.9310344827586  L 107.586206896552 49.6551724137931  L 100 49.6551724137931  L 100 66.2068965517241  L 107.586206896552 66.2068965517241  L 107.586206896552 74.4827586206897  L 115.862068965517 74.4827586206897  L 115.862068965517 67  L 132.413793103448 67  L 132.413793103448 74.4827586206897  L 124.137931034483 74.4827586206897  L 124.137931034483 83  L 140 83  L 140 99.3103448275862  L 149 99.3103448275862  L 149 74.4827586206897  L 140.689655172414 74.4827586206897  L 140.689655172414 67  L 157 67  L 157 49.6551724137931  L 165 49.6551724137931  L 165 66.2068965517241  L 157.241379310345 66.2068965517241  L 157.241379310345 75  L 173.793103448276 75  L 173.793103448276 82.7586206896552  L 182 82.7586206896552  L 182 99.3103448275862  L 173.793103448276 99.3103448275862  L 173.793103448276 91  L 157 91  L 157 107.586206896552  L 165.51724137931 107.586206896552  L 165.51724137931 116  L 190 116  L 190 91  L 206.896551724138 91  L 206.896551724138 83  L 190 83  Z M 0 182  L 0 240  L 58 240  L 58 182  L 0 182  Z M 58 58  L 58 0  L 0 0  L 0 58  L 58 58  Z M 240 0  L 182 0  L 182 58  L 240 58  L 240 0  Z M 33.1034482758621 157  L 57.9310344827586 157  L 57.9310344827586 148.965517241379  L 49.6551724137931 148.965517241379  L 49.6551724137931 140.689655172414  L 57.9310344827586 140.689655172414  L 57.9310344827586 132  L 41.3793103448276 132  L 41.3793103448276 140.689655172414  L 33.1034482758621 140.689655172414  L 33.1034482758621 148.965517241379  L 24.8275862068966 148.965517241379  L 24.8275862068966 157  L 8.27586206896552 157  L 8.27586206896552 165.51724137931  L 16.551724137931 165.51724137931  L 16.551724137931 173.793103448276  L 24.8275862068966 173.793103448276  L 24.8275862068966 165.51724137931  L 33.1034482758621 165.51724137931  L 33.1034482758621 157  Z M 91.0344827586207 41.3793103448276  L 91.0344827586207 33.1034482758621  L 99.3103448275862 33.1034482758621  L 99.3103448275862 24.8275862068966  L 91.0344827586207 24.8275862068966  L 91.0344827586207 16.551724137931  L 99.3103448275862 16.551724137931  L 99.3103448275862 24.8275862068966  L 108 24.8275862068966  L 108 0  L 99.3103448275862 0  L 99.3103448275862 9  L 82.7586206896552 9  L 82.7586206896552 17  L 66.2068965517241 17  L 66.2068965517241 24.8275862068966  L 74.4827586206897 24.8275862068966  L 74.4827586206897 33.1034482758621  L 82.7586206896552 33.1034482758621  L 82.7586206896552 41.3793103448276  L 91.0344827586207 41.3793103448276  Z M 24.8275862068966 124.137931034483  L 33.1034482758621 124.137931034483  L 33.1034482758621 115.862068965517  L 24.8275862068966 115.862068965517  L 24.8275862068966 107.586206896552  L 16.551724137931 107.586206896552  L 16.551724137931 99.3103448275862  L 8.27586206896552 99.3103448275862  L 8.27586206896552 107.586206896552  L 0 107.586206896552  L 0 115.862068965517  L 8.27586206896552 115.862068965517  L 8.27586206896552 124.137931034483  L 16.551724137931 124.137931034483  L 16.551724137931 132.413793103448  L 24.8275862068966 132.413793103448  L 24.8275862068966 124.137931034483  Z M 8.27586206896552 132.413793103448  L 8.27586206896552 124.137931034483  L 0 124.137931034483  L 0 140  L 16.551724137931 140  L 16.551724137931 132.413793103448  L 8.27586206896552 132.413793103448  Z M 223.448275862069 140.689655172414  L 215 140.689655172414  L 215 99.3103448275862  L 206 99.3103448275862  L 206 149  L 223.448275862069 149  L 223.448275862069 140.689655172414  Z M 33.1034482758621 132.413793103448  L 41.3793103448276 132.413793103448  L 41.3793103448276 124.137931034483  L 33.1034482758621 124.137931034483  L 33.1034482758621 132.413793103448  Z M 116 107.586206896552  L 116 124.137931034483  L 108 124.137931034483  L 108 99.3103448275862  L 99.3103448275862 99.3103448275862  L 99.3103448275862 107.586206896552  L 91.0344827586207 107.586206896552  L 91.0344827586207 115.862068965517  L 82.7586206896552 115.862068965517  L 82.7586206896552 108  L 67 108  L 67 132.413793103448  L 74.4827586206897 132.413793103448  L 74.4827586206897 124  L 99.3103448275862 124  L 99.3103448275862 132  L 124 132  L 124 107.586206896552  L 116 107.586206896552  Z M 140.689655172414 108  L 140.689655172414 100  L 124.137931034483 100  L 124.137931034483 107.586206896552  L 132.413793103448 107.586206896552  L 132.413793103448 115.862068965517  L 140.689655172414 115.862068965517  L 140.689655172414 124.137931034483  L 132.413793103448 124.137931034483  L 132.413793103448 132  L 148.965517241379 132  L 148.965517241379 124.137931034483  L 157 124.137931034483  L 157 108  L 140.689655172414 108  Z M 190.344827586207 124.137931034483  L 198.620689655172 124.137931034483  L 198.620689655172 115.862068965517  L 190.344827586207 115.862068965517  L 190.344827586207 124.137931034483  Z M 49.6551724137931 115.862068965517  L 49.6551724137931 124.137931034483  L 57.9310344827586 124.137931034483  L 57.9310344827586 115.862068965517  L 49.6551724137931 115.862068965517  Z M 182.068965517241 157.241379310345  L 190 157.241379310345  L 190 140.689655172414  L 198.620689655172 140.689655172414  L 198.620689655172 132  L 182.068965517241 132  L 182.068965517241 124  L 165.51724137931 124  L 165.51724137931 132.413793103448  L 157.241379310345 132.413793103448  L 157.241379310345 140.689655172414  L 165.51724137931 140.689655172414  L 165.51724137931 149  L 182.068965517241 149  L 182.068965517241 157.241379310345  Z M 223 182.068965517241  L 223 206.896551724138  L 215.172413793103 206.896551724138  L 215.172413793103 215  L 231.724137931035 215  L 231.724137931035 223.448275862069  L 240 223.448275862069  L 240 206.896551724138  L 231 206.896551724138  L 231 190.344827586207  L 240 190.344827586207  L 240 173  L 215.172413793103 173  L 215.172413793103 182.068965517241  L 223 182.068965517241  Z M 66.2068965517241 165  L 33.1034482758621 165  L 33.1034482758621 173  L 66.2068965517241 173  L 66.2068965517241 165  Z M 223 223.448275862069  L 223 240  L 240 240  L 240 231.724137931035  L 231.724137931035 231.724137931035  L 231.724137931035 223.448275862069  L 223 223.448275862069  Z M 9 231  L 9 190  L 50 190  L 50 231  L 9 231  Z M 173 198  L 173 173  L 198 173  L 198 198  L 173 198  Z M 82.7586206896552 132  L 82.7586206896552 140.689655172414  L 91.0344827586207 140.689655172414  L 91.0344827586207 148.965517241379  L 100 148.965517241379  L 100 132  L 82.7586206896552 132  Z M 0 165.51724137931  L 0 173.793103448276  L 8.27586206896552 173.793103448276  L 8.27586206896552 165.51724137931  L 0 165.51724137931  Z M 8.27586206896552 148.965517241379  L 0 148.965517241379  L 0 157.241379310345  L 8.27586206896552 157.241379310345  L 8.27586206896552 148.965517241379  Z M 223.448275862069 74.4827586206897  L 223.448275862069 66.2068965517241  L 215.172413793103 66.2068965517241  L 215.172413793103 74.4827586206897  L 223.448275862069 74.4827586206897  Z M 215.172413793103 74.4827586206897  L 206.896551724138 74.4827586206897  L 206.896551724138 82.7586206896552  L 215.172413793103 82.7586206896552  L 215.172413793103 74.4827586206897  Z M 231.724137931035 74.4827586206897  L 231.724137931035 83  L 215.172413793103 83  L 215.172413793103 91.0344827586207  L 223 91.0344827586207  L 223 107.586206896552  L 231.724137931035 107.586206896552  L 231.724137931035 115.862068965517  L 223 115.862068965517  L 223 140.689655172414  L 231.724137931035 140.689655172414  L 231.724137931035 148.965517241379  L 223 148.965517241379  L 223 165.51724137931  L 231.724137931035 165.51724137931  L 231.724137931035 157.241379310345  L 240 157.241379310345  L 240 132.413793103448  L 231.724137931035 132.413793103448  L 231.724137931035 124.137931034483  L 240 124.137931034483  L 240 99.3103448275862  L 231.724137931035 99.3103448275862  L 231.724137931035 91.0344827586207  L 240 91.0344827586207  L 240 74.4827586206897  L 231.724137931035 74.4827586206897  Z M 231 9  L 231 50  L 190 50  L 190 9  L 231 9  Z M 82.7586206896552 49.6551724137931  L 82.7586206896552 41.3793103448276  L 74.4827586206897 41.3793103448276  L 74.4827586206897 49.6551724137931  L 82.7586206896552 49.6551724137931  Z M 41.3793103448276 75  L 57.9310344827586 75  L 57.9310344827586 83  L 75 83  L 75 66.2068965517241  L 83 66.2068965517241  L 83 83  L 100 83  L 100 66.2068965517241  L 91 66.2068965517241  L 91 49.6551724137931  L 82.7586206896552 49.6551724137931  L 82.7586206896552 57.9310344827586  L 74.4827586206897 57.9310344827586  L 74.4827586206897 49.6551724137931  L 67 49.6551724137931  L 67 67  L 33.1034482758621 67  L 33.1034482758621 74.4827586206897  L 24.8275862068966 74.4827586206897  L 24.8275862068966 67  L 0 67  L 0 75  L 16.551724137931 75  L 16.551724137931 83  L 41.3793103448276 83  L 41.3793103448276 75  Z M 57.9310344827586 91  L 57.9310344827586 83  L 41.3793103448276 83  L 41.3793103448276 91  L 57.9310344827586 91  Z M 24.8275862068966 99.3103448275862  L 24.8275862068966 91.0344827586207  L 16.551724137931 91.0344827586207  L 16.551724137931 99.3103448275862  L 24.8275862068966 99.3103448275862  Z M 99.3103448275862 91.0344827586207  L 91.0344827586207 91.0344827586207  L 91.0344827586207 99.3103448275862  L 99.3103448275862 99.3103448275862  L 99.3103448275862 91.0344827586207  Z M 24.8275862068966 107.586206896552  L 33.1034482758621 107.586206896552  L 33.1034482758621 115.862068965517  L 41.3793103448276 115.862068965517  L 41.3793103448276 108  L 66.2068965517241 108  L 66.2068965517241 99.3103448275862  L 74.4827586206897 99.3103448275862  L 74.4827586206897 91  L 57.9310344827586 91  L 57.9310344827586 100  L 41.3793103448276 100  L 41.3793103448276 91.0344827586207  L 33.1034482758621 91.0344827586207  L 33.1034482758621 99.3103448275862  L 24.8275862068966 99.3103448275862  L 24.8275862068966 107.586206896552  Z M 8.27586206896552 91.0344827586207  L 0 91.0344827586207  L 0 99.3103448275862  L 8.27586206896552 99.3103448275862  L 8.27586206896552 91.0344827586207  Z M 50 9  L 50 50  L 9 50  L 9 9  L 50 9  Z M 82.7586206896552 91.0344827586207  L 82.7586206896552 82.7586206896552  L 74.4827586206897 82.7586206896552  L 74.4827586206897 91.0344827586207  L 82.7586206896552 91.0344827586207  Z M 132.413793103448 49.6551724137931  L 132.413793103448 57.9310344827586  L 124.137931034483 57.9310344827586  L 124.137931034483 49.6551724137931  L 132.413793103448 49.6551724137931  Z M 108 41.3793103448276  L 115.862068965517 41.3793103448276  L 115.862068965517 34  L 132.413793103448 34  L 132.413793103448 24.8275862068966  L 140.689655172414 24.8275862068966  L 140.689655172414 16.551724137931  L 132 16.551724137931  L 132 0  L 124.137931034483 0  L 124.137931034483 8.27586206896552  L 116 8.27586206896552  L 116 24.8275862068966  L 108 24.8275862068966  L 108 41.3793103448276  Z M 91.0344827586207 165.51724137931  L 99.3103448275862 165.51724137931  L 99.3103448275862 157.241379310345  L 91.0344827586207 157.241379310345  L 91.0344827586207 165.51724137931  Z M 148.965517241379 49.6551724137931  L 148.965517241379 57.9310344827586  L 140.689655172414 57.9310344827586  L 140.689655172414 49.6551724137931  L 148.965517241379 49.6551724137931  Z M 100 223  L 100 240  L 116 240  L 116 223  L 100 223  Z M 124.137931034483 223.448275862069  L 124.137931034483 231.724137931035  L 132.413793103448 231.724137931035  L 132.413793103448 223.448275862069  L 124.137931034483 223.448275862069  Z M 173.793103448276 223.448275862069  L 182.068965517241 223.448275862069  L 182.068965517241 215.172413793103  L 173.793103448276 215.172413793103  L 173.793103448276 223.448275862069  Z M 82.7586206896552 0  L 74.4827586206897 0  L 74.4827586206897 8.27586206896552  L 82.7586206896552 8.27586206896552  L 82.7586206896552 0  Z M 124 206.896551724138  L 116 206.896551724138  L 116 223.448275862069  L 124 223.448275862069  L 124 206.896551724138  Z M 33.1034482758621 132.413793103448  L 24.8275862068966 132.413793103448  L 24.8275862068966 140.689655172414  L 33.1034482758621 140.689655172414  L 33.1034482758621 132.413793103448  Z M 124.137931034483 91.0344827586207  L 115.862068965517 91.0344827586207  L 115.862068965517 82.7586206896552  L 108 82.7586206896552  L 108 100  L 124.137931034483 100  L 124.137931034483 91.0344827586207  Z M 82.7586206896552 190.344827586207  L 82.7586206896552 198.620689655172  L 74.4827586206897 198.620689655172  L 74.4827586206897 190.344827586207  L 82.7586206896552 190.344827586207  Z M 82.7586206896552 140  L 66.2068965517241 140  L 66.2068965517241 149  L 82.7586206896552 149  L 82.7586206896552 140  Z M 82.7586206896552 223.448275862069  L 82.7586206896552 231.724137931035  L 74.4827586206897 231.724137931035  L 74.4827586206897 223.448275862069  L 82.7586206896552 223.448275862069  Z M 99.3103448275862 190.344827586207  L 99.3103448275862 198.620689655172  L 91.0344827586207 198.620689655172  L 91.0344827586207 190.344827586207  L 99.3103448275862 190.344827586207  Z M 116 165.51724137931  L 116 149  L 132.413793103448 149  L 132.413793103448 157.241379310345  L 124.137931034483 157.241379310345  L 124.137931034483 165.51724137931  L 132 165.51724137931  L 132 190.344827586207  L 124 190.344827586207  L 124 165.51724137931  L 116 165.51724137931  Z M 82.7586206896552 148.965517241379  L 82.7586206896552 157.241379310345  L 91.0344827586207 157.241379310345  L 91.0344827586207 148.965517241379  L 82.7586206896552 148.965517241379  Z M 182.068965517241 231  L 182.068965517241 240  L 215.172413793103 240  L 215.172413793103 231  L 182.068965517241 231  Z M 140.689655172414 215  L 140.689655172414 206.896551724138  L 148.965517241379 206.896551724138  L 148.965517241379 198.620689655172  L 157.241379310345 198.620689655172  L 157.241379310345 190  L 140.689655172414 190  L 140.689655172414 182  L 157.241379310345 182  L 157.241379310345 190.344827586207  L 165 190.344827586207  L 165 206.896551724138  L 157.241379310345 206.896551724138  L 157.241379310345 215  L 140.689655172414 215  Z M 223 42  L 223 17  L 198 17  L 198 42  L 223 42  Z M 42 42  L 42 17  L 17 17  L 17 42  L 42 42  Z M 182.068965517241 182.068965517241  L 182.068965517241 190.344827586207  L 190.344827586207 190.344827586207  L 190.344827586207 182.068965517241  L 182.068965517241 182.068965517241  Z M 17 198  L 17 223  L 42 223  L 42 198  L 17 198  Z " fill-rule="nonzero" fill="#000000" stroke="none" transform="matrix(1 0 0 1 20 20 )" />
  </g>
</svg>