<?xml version="1.0" encoding="utf-8"?>
<svg version="1.1" xmlns:xlink="http://www.w3.org/1999/xlink" width="100px" height="30px" xmlns="http://www.w3.org/2000/svg">
  <g>
    <path d="M 2 15  A 13 13 0 0 1 15 2 L 85 2  A 13 13 0 0 1 98 15 A 13 13 0 0 1 85 28 L 15 28  A 13 13 0 0 1 2 15 Z " fill-rule="nonzero" fill="#ffffff" stroke="none" fill-opacity="0" />
    <path d="M 1 15  A 14 14 0 0 1 15 1 L 85 1  A 14 14 0 0 1 99 15 A 14 14 0 0 1 85 29 L 15 29  A 14 14 0 0 1 1 15 Z " stroke-width="2" stroke="#ffffff" fill="none" stroke-opacity="0.298039215686275" />
  </g>
</svg>