<?xml version="1.0" encoding="utf-8"?>
<svg version="1.1" xmlns:xlink="http://www.w3.org/1999/xlink" width="36px" height="30px" xmlns="http://www.w3.org/2000/svg">
  <g transform="matrix(1 0 0 1 -42 -45 )">
    <path d="M 36 25.5  C 36 28.05  34.05 30  31.5 30  L 4.5 30  C 1.95 30  0 28.05  0 25.5  L 0 4.5  C 0 1.95  1.95 0  4.5 0  L 31.5 0  C 34.05 0  36 1.95  36 4.5  L 36 25.5  Z M 33 25.5  L 33 4.5  C 33 3.6  32.4 3  31.5 3  L 4.5 3  C 3.6 3  3 3.6  3 4.5  L 3 25.5  C 3 26.4  3.6 27  4.5 27  L 31.5 27  C 32.4 27  33 26.4  33 25.5  Z M 18 15.9  C 18.45 16.2  19.05 16.2  19.5 15.9  L 28.5 10.8  C 29.25 10.35  29.55 9.45  29.1 8.7  C 28.65 7.95  27.75 7.65  27 8.1  L 18 13.35  L 9 8.1  C 8.25 7.65  7.35 7.95  6.9 8.7  C 6.45 9.3  6.75 10.2  7.5 10.65  L 16.5 15.9  C 16.95 16.2  17.55 16.2  18 15.9  Z " fill-rule="nonzero" fill="#ffffff" stroke="none" fill-opacity="0.6" transform="matrix(1 0 0 1 42 45 )" />
  </g>
</svg>