<?xml version="1.0" encoding="utf-8"?>
<svg version="1.1" xmlns:xlink="http://www.w3.org/1999/xlink" width="20px" height="20px" xmlns="http://www.w3.org/2000/svg">
  <g transform="matrix(1 0 0 1 -30 -30 )">
    <path d="M 19.1821598101266 0.110759493670886  C 19.3304984177215 0.110759493670886  19.464003164557 0.152788765822785  19.5826740506329 0.234375  C 19.8274327531646 0.409909018987342  19.9238528481013 0.64725079113924  19.8793512658228 0.938983386075949  L 17.0535007911392 17.8916139240506  C 17.0164161392405 18.1042325949367  16.8977452531646 18.2698773734177  16.699960443038 18.3885482594937  C 16.5985957278481 18.4454113924051  16.4823971518987 18.4775514240506  16.3587816455696 18.4775514240506  C 16.2771954113924 18.4775514240506  16.1881922468354 18.457772943038  16.0942444620253 18.4206882911392  L 11.0952333860759 16.3785601265823  L 8.42266613924051 19.6370648734177  C 8.28916139240506 19.8076542721519  8.10868275316456 19.8892405063291  7.88123022151899 19.8892405063291  C 7.78728243670886 19.8892405063291  7.70569620253165 19.8744066455696  7.63647151898734 19.8447389240506  C 7.49802215189873 19.7928204113924  7.38429588607595 19.7087618670886  7.30023734177215 19.5851463607595  C 7.21617879746835 19.464003164557  7.17167721518987 19.3304984177215  7.17167721518987 19.1821598101266  L 7.17167721518987 15.332772943038  L 16.7073773734177 3.64369066455696  L 4.90951344936709 13.8543314873418  L 0.550830696202531 12.0668512658228  C 0.27887658227848 11.9654865506329  0.130537974683543 11.7627571202532  0.110759493670885 11.4586629746835  C 0.0959256329113915 11.1644580696203  0.212124208860758 10.946894778481  0.464299841772151 10.8059731012658  L 18.8286194620253 0.209651898734177  C 18.9398734177215 0.142899525316456  19.0560719936709 0.110759493670886  19.1821598101266 0.110759493670886  Z " fill-rule="nonzero" fill="#ffffff" stroke="none" transform="matrix(1 0 0 1 30 30 )" />
  </g>
</svg>