<?xml version="1.0" encoding="utf-8"?>
<svg version="1.1" xmlns:xlink="http://www.w3.org/1999/xlink" width="60px" height="60px" xmlns="http://www.w3.org/2000/svg">
  <g transform="matrix(1 0 0 1 -20 -20 )">
    <path d="M 52.0088899008076 34.8990510460805  C 54.1167168407654 34.5018847325212  59.4456404494382 32.8459254502119  59.7564269662921 30.0292609904661  C 59.3389146330758 27.0035864009534  54.1167168407654 25.6578508342161  52.0088224850773 25.260630495233  C 50.660150588132 25.0061559189619  46.365 24.8873220338983  39.4127325974368 24.9522982653602  C 38.9545280898876 24.1472202727754  37.7785348709621 22.0870576006356  36.2960629608497 19.499450807733  C 37.0638405021067 18.8059525291313  39.2336494908708 16.8211999470339  39.9753573560393 15.8824474311441  C 41.3344045602177 14.1621220206568  39.5079236745084 13.3487050450212  38.2407776070927 13.3511457229873  C 36.9547686314958 13.3528406382415  33.3395393916784 13.3511457229873  32.7639708786868 13.3511457229873  C 30.0526180433638 8.65019657044492  27.340591116573 3.98915247616525  26.3126225640801 2.36476608845339  C 23.982802339361 -1.31714578919492  19.4553506408006 0.423640691207626  19.6556495567065 2.36476608845339  C 19.8360068469101 4.11076608845339  24.3764630661868 21.7226237420551  25.2875461727528 25.2443728813559  C 25.0932405416082 25.2503322298729  24.9101933374298 25.254400026483  24.7146068732444 25.260630495233  C 19.3914810173806 25.4191661149364  14.9008113807935 26.0322440413136  11.260388869382 26.7693017081568  C 10.1440180828652 25.5669288268008  6.45886530021068 21.5837356329449  4.2763214536517 19.1014169756356  C 1.62217086551967 16.0826508871822  0.187125921699448 18.4256067929025  0.348418056530908 19.4360407176907  C 0.811267468398887 22.3358373278602  2.64347197594804 28.5583322298729  2.79465853230338 29.0688339512712  C 1.78817538623597 29.3205288665254  1.15433268960675 29.6768949947034  1.14833940484552 30.0739797404661  C 1.14476637113765 30.0755390625  1.14167196278091 30.0781831302966  1.13823376053372 30.079939088983  C 1.14167196278091 30.0816340042373  1.14523828125001 30.0849492849576  1.14847423630619 30.0870509798729  C 1.15601808286518 30.4835255561441  1.78938886938203 30.8393560646186  2.79472594803372 31.0905086069915  C 2.64407878335675 31.6001967690678  0.811334949964898 37.8235052304025  0.348485472261246 40.7235730270127  C 0.187193337429784 41.7338713585805  1.62223828125001 44.0769628575212  4.27638886938203 41.0583323622881  C 6.45893271594102 38.5757425185381  10.1440247981039 34.5926171212924  11.2604562851124 33.3903120365466  C 14.9008787306882 34.1276408236229  19.391548433111 34.7405832229873  24.7146742889747 34.8991188426907  C 24.9102608189958 34.905213784428  25.0933080231742 34.9092815810381  25.2876135884832 34.9152408633475  C 24.3765304160815 38.4370577992585  19.8360742626405 56.0489832494704  19.6557169724368 57.79484765625  C 19.4554181223666 59.7361764433263  23.9828697550913 61.4768273305085  26.3126899798104 57.79484765625  C 27.3407326632725 56.1706578389831  30.0526922401685 51.5095527674788  32.7640382944171 46.8086714115466  C 33.3396068074087 46.8086714115466  36.9548293319874 46.806840903072  38.240845022823 46.8086714115466  C 39.5080585059691 46.8110442929026  41.334471975948 45.997627317267  39.9754247717697 44.2773019067797  C 39.2336494908708 43.3386171875  37.0639079178371 41.3539934454449  36.2961303765801 40.66002734375  C 37.7786022866924 38.0725629634534  38.9545955714537 36.0124680217161  39.4128000131671 35.2075188691737  C 46.3650674157304 35.2723595736229  50.6602180038624 35.1533832759534  52.0088899008076 34.8990510460805  Z " fill-rule="nonzero" fill="#ffffff" stroke="none" transform="matrix(1 0 0 1 20 20 )" />
  </g>
</svg>