<?xml version="1.0" encoding="utf-8"?>
<svg version="1.1" xmlns:xlink="http://www.w3.org/1999/xlink" width="30px" height="30px" xmlns="http://www.w3.org/2000/svg">
  <g transform="matrix(1 0 0 1 -25 -25 )">
    <path d="M 1.22676028481013 0.166139240506329  C 1.00425237341772 0.166139240506329  0.803995253164557 0.229183148734177  0.625988924050633 0.3515625  C 0.258850870253163 0.614863528481013  0.1142207278481 0.97087618670886  0.180973101265823 1.40847507911392  L 4.41974881329114 26.837420886076  C 4.47537579113924 27.1563488924051  4.65338212025316 27.4048160601266  4.95005933544304 27.5828223892405  C 5.10210640822785 27.6681170886076  5.2764042721519 27.716327136076  5.46182753164557 27.716327136076  C 5.58420688291139 27.716327136076  5.71771162974684 27.686659414557  5.85863330696203 27.6310324367089  L 13.3571499208861 24.5678401898734  L 17.3660007911392 29.4555973101266  C 17.5662579113924 29.7114814082278  17.8369758702532 29.8338607594937  18.1781546677215 29.8338607594937  C 18.3190763449367 29.8338607594937  18.4414556962025 29.8116099683544  18.545292721519 29.767108386076  C 18.7529667721519 29.6892306170886  18.9235561708861 29.5631428006329  19.0496439873418 29.3777195411392  C 19.1757318037975 29.1960047468354  19.2424841772152 28.9957476265823  19.2424841772152 28.7732397151899  L 19.2424841772152 22.999159414557  L 4.93893393987342 5.46553599683544  L 22.6357298259494 20.7814972310127  L 29.1737539556962 18.1002768987342  C 29.5816851265823 17.9482298259494  29.8041930379747 17.6441356803798  29.8338607594937 17.1879944620253  C 29.8561115506329 16.7466871044304  29.6818136867089 16.4203421677215  29.3035502373418 16.2089596518987  L 1.75707080696203 0.314477848101266  C 1.59018987341772 0.214349287974684  1.41589200949367 0.166139240506329  1.22676028481013 0.166139240506329  Z " fill-rule="nonzero" fill="#ffffff" stroke="none" transform="matrix(1 0 0 1 25 25 )" />
  </g>
</svg>