<?xml version="1.0" encoding="utf-8"?>
<svg version="1.1" xmlns:xlink="http://www.w3.org/1999/xlink" width="40px" height="40px" xmlns="http://www.w3.org/2000/svg">
  <g transform="matrix(1 0 0 1 -20 -20 )">
    <path d="M 38.3643196202532 0.221518987341772  C 38.660996835443 0.221518987341772  38.9280063291139 0.30557753164557  39.1653481012658 0.46875  C 39.6548655063291 0.819818037974684  39.8477056962025 1.29450158227848  39.7587025316456 1.8779667721519  L 34.1070015822785 35.7832278481013  C 34.032832278481 36.2084651898734  33.7954905063291 36.5397547468354  33.399920886076 36.7770965189873  C 33.1971914556962 36.8908227848101  32.9647943037975 36.9551028481013  32.7175632911392 36.9551028481013  C 32.5543908227848 36.9551028481013  32.3763844936709 36.915545886076  32.1884889240506 36.8413765822785  L 22.1904667721519 32.7571202531646  L 16.845332278481 39.2741297468354  C 16.5783227848101 39.6153085443038  16.2173655063291 39.7784810126582  15.762460443038 39.7784810126582  C 15.5745648734177 39.7784810126582  15.4113924050633 39.7488132911392  15.2729430379747 39.6894778481013  C 14.9960443037975 39.5856408227848  14.7685917721519 39.4175237341772  14.6004746835443 39.170292721519  C 14.4323575949367 38.9280063291139  14.3433544303797 38.660996835443  14.3433544303797 38.3643196202532  L 14.3433544303797 30.665545886076  L 33.4147547468354 7.28738132911393  L 9.81902689873418 27.7086629746836  L 1.10166139240506 24.1337025316456  C 0.55775316455696 23.9309731012658  0.261075949367087 23.5255142405063  0.22151898734177 22.9173259493671  C 0.191851265822783 22.3289161392405  0.424248417721516 21.893789556962  0.928599683544302 21.6119462025317  L 37.6572389240506 0.419303797468354  C 37.879746835443 0.285799050632911  38.1121439873418 0.221518987341772  38.3643196202532 0.221518987341772  Z " fill-rule="nonzero" fill="#ffffff" stroke="none" transform="matrix(1 0 0 1 20 20 )" />
  </g>
</svg>