<?xml version="1.0" encoding="utf-8"?>
<svg version="1.1" xmlns:xlink="http://www.w3.org/1999/xlink" width="18px" height="20px" xmlns="http://www.w3.org/2000/svg">
  <g transform="matrix(1 0 0 1 -325 -56 )">
    <path d="M 17.8895705521472 3.02127659574468  C 17.9117529310943 3.0116991697854  17.9118011766346 3.00212134914037  17.9118011766346 2.99254347211054  C 17.9118011766346 1.35742809043065  16.5358595973722 0.0319051742381971  14.8385496428922 0.0319051742381971  C 14.835924707572 0.0319051742381971  14.8332997733287 0.0319084140338017  14.8306748466258 0.106382978723404  L 3.19141104294478 0.106382978723404  C 1.47813900510123 0.0330883690465251  0.0895616689734513 1.370784029737  0.110429447852761 3.02127659574468  L 0.110429447852761 17.7553191489362  C 0.0864226655327097 18.1667454457925  0.209239310059033 18.5697602439787  0.441717791411043 18.9148936170213  C 1.11082159561085 19.9608624249248  2.52927199680901 20.2929915431132  3.62208588957055 19.6595744680851  L 8.66871165644172 16.7021276595745  C 8.91884142517875 16.5520881995317  9.23575980181512 16.5520881995317  9.48588957055215 16.7021276595745  L 14.3779141104294 19.6170212765957  C 14.7361752559436 19.84098104291  15.1545194513614 19.9592973139372  15.5815950920245 19.9574468085106  C 16.8666911317201 19.953359982585  17.9074141659717 18.9507721895412  17.8895705521472 17.7127659574468  L 17.8895705521472 3.02127659574468  Z M 14.9079754601227 1.59574468085106  C 15.7646115761277 1.52479494395896  16.4564326246012 2.19602608027552  16.4539877300613 3.02127659574468  L 16.4539877300613 17.7127659574468  L 16.3877300613497 17.7127659574468  C 16.3877300613497 18.1240418349804  16.0416434262496 18.4574468085106  15.6147239263804 18.4574468085106  C 15.4761858406079 18.4594497637278  15.3406615037212 18.418417150415  15.2282208588957 18.3404255319149  L 10.3361963190184 15.4255319148936  C 9.60078877289926 14.9786269517403  8.66424190194737 14.9786269517403  7.92883435582822 15.4255319148936  L 2.88220858895705 18.3829787234043  C 2.76348786120973 18.4566146941173  2.6252732742946 18.4957712409276  2.48407411371497 18.4957712409276  C 2.21091794181436 18.4957712409276  1.9602633591956 18.3499288525782  1.83312883435583 18.1170212765957  C 1.75961749870729 18.0052400366191  1.71774034036995 17.8768770512793  2 17.7446808510638  L 2 3.02127659574468  C 1.71468532397504 2.19406111720957  2.41003154007275 1.52419449059061  3.26871165644172 1.59574468085106  L 14.9079754601227 1.59574468085106  Z M 12.8760736196319 8.80851063829787  C 12.9663567418924 8.76409399991802  13.0397834649456 8.69335785418714  13.0858895705521 8.6063829787234  C 13.1397652917686 8.50771204969675  13.1699556971648 8.39864653374871  13.1742331288344 8.28723404255319  C 13.1616621288728 8.17588726193403  13.1279747213607 8.06771059872544  13.0748466257669 7.96808510638298  C 13.0287405201603 7.88111023091924  12.9553137971071 7.81037408518836  12.8650306748466 7.76595744680851  C 12.7626066184582 7.71405589504561  12.6493925982226 7.68497175745946  12.5337423312883 7.76595744680851  L 9.60736196319018 7.76595744680851  L 9.60736196319018 4.87234042553192  C 9.60985008370118 4.76158490500498  9.57988806583578 4.65334445925898  9.53006134969325 4.5531914893617  C 9.48395524408669 4.46621661389796  9.41052852103353 4.39548046816708  9.32024539877301 4.35106382978723  C 9.21628292940725 4.30306291530005  9.10392536241201 4.27419879643445  8.98895705521473 4.26595744680851  C 8.87398874801744 4.27419879643445  8.7616311810222 4.30306291530005  8.65766871165644 4.35106382978723  C 8.56738558939592 4.39548046816708  8.49395886634277 4.46621661389796  8.4478527607362 4.5531914893617  C 8.39802604459367 4.65334445925898  8.36806402672828 4.76158490500498  8.39263803680982 4.87234042553192  L 8.39263803680982 7.76595744680851  L 5.45521472392638 7.76595744680851  C 5.34024641672909 7.68909241345573  5.22788884973386 7.71795653232133  5.1239263803681 7.76595744680851  C 5.03364325810758 7.81037408518836  4.96021653505442 7.88111023091924  4.91411042944785 7.96808510638298  C 4.86428371330533 8.06823807628025  4.83432169543993 8.17647852202625  4.82576687116565 8.28723404255319  C 4.83432169543993 8.39798956308013  4.86428371330533 8.50623000882613  4.91411042944785 8.60638297872341  C 4.96021653505442 8.69335785418714  5.03364325810758 8.76409399991802  5.1239263803681 8.80851063829787  C 5.2263504367565 8.86041219006078  5.33956445699214 8.88949632764692  5.45521472392638 8.82978723404255  L 8.39263803680982 8.82978723404255  L 8.39263803680982 11.7021276595745  C 8.37910697151355 11.8128831801014  8.40906898937895 11.9211236258474  8.45889570552147 12.0212765957447  C 8.50500181112804 12.1082514712084  8.5784285341812 12.1789876169393  8.66871165644172 12.2234042553191  C 8.77267412580748 12.2714051698063  8.88503169280271 12.3002692886719  9 12.3085106382979  C 9.11496830719729 12.3002692886719  9.22732587419253 12.2714051698063  9.33128834355829 12.2234042553191  C 9.42157146581881 12.1789876169393  9.49499818887196 12.1082514712084  9.54110429447853 12.0212765957447  C 9.59498001569499 11.922605666718  9.62517042109116 11.81354015077  9.60736196319018 11.7021276595745  L 9.60736196319018 8.82978723404255  L 12.5447852760736 8.82978723404255  C 12.6597535832709 8.88537567165066  12.7721111502661 8.85651155278506  12.8760736196319 8.80851063829787  Z " fill-rule="nonzero" fill="#666666" stroke="none" transform="matrix(1 0 0 1 325 56 )" />
  </g>
</svg>