<?xml version="1.0" encoding="utf-8"?>
<svg version="1.1" xmlns:xlink="http://www.w3.org/1999/xlink" width="24px" height="24px" xmlns="http://www.w3.org/2000/svg">
  <g transform="matrix(1 0 0 1 -288 -12 )">
    <path d="M 0.0930141715116287 12  C 0.0930141715116287 5.45115370639535  5.45115370639535 0.0930141715116247  12 0.0930141715116247  C 18.5488462936046 0.0930141715116247  23.9069858284884 5.45115370639535  23.9069858284884 12  C 23.9069858284884 18.5488462936046  18.5488462936046 23.9069858284884  12 23.9069858284884  C 5.45115370639535 23.9069858284884  0.0930141715116287 18.5488462936046  0.0930141715116287 12  Z M 1.87906068313953 12  C 1.87906068313953 17.5565952034884  6.44340479651163 22.1209393168605  12 22.1209393168605  C 17.5565952034884 22.1209393168605  22.1209393168605 17.5565952034884  22.1209393168605 12  C 22.1209393168605 6.44340479651163  17.5565952034884 1.87906068313953  12 1.87906068313953  C 6.44340479651163 1.87906068313953  1.87906068313953 6.44340479651163  1.87906068313953 12  Z M 8.62630813953488 14.3814135174419  C 10.4123546511628 16.3659156976744  13.5875635901163 16.1674600290698  15.3736101017442 14.3814135174419  C 15.5720657703488 14.1829578488372  15.7704941860465 13.9845294331395  15.9689498546512 13.9845294331395  C 16.1674055232558 13.9845294331395  16.3658611918605 13.9845021802326  16.5643168604651 14.1829578488372  C 16.9612009447674 14.5798419331395  16.9612009447674 15.1752089389535  16.5643168604651 15.5721202761628  C 15.3736101017442 16.9612827034884  13.5875635901163 17.5566224563953  11.8015170784884 17.5566224563953  C 10.0154705668605 17.5566224563953  8.22942405523256 16.7628270348837  7.03871729651163 15.5721202761628  C 6.6418332122093 15.1752361918605  6.6418332122093 14.5798691860465  7.03871729651163 14.1829578488372  C 7.6340570494186 13.9845021802326  8.22942405523256 13.9845021802326  8.62630813953488 14.3814135174419  Z M 15.4883720930233 9.22170239825581  C 15.5720930232558 8.62636264534884  15.9689771075581 8.22945130813954  16.5643441133721 8.22945130813954  C 17.159711119186 8.22945130813954  17.5565952034884 8.62633539244186  17.4418604651163 9.22170239825581  L 17.4418604651163 11.0077489098837  C 17.5565952034884 11.6030886627907  17.159711119186 12  16.5643441133721 12  C 15.9689771075581 12  15.5720930232558 11.6031159156977  15.4883720930233 11.0077489098837  L 15.4883720930233 9.22170239825581  Z M 6.55813953488372 9.22170239825581  C 6.44340479651163 8.62636264534884  6.84028888081395 8.22945130813954  7.43565588662791 8.22945130813954  C 8.03102289244186 8.22945130813954  8.42790697674418 8.62633539244186  8.51162790697675 9.22170239825581  L 8.51162790697675 11.0077489098837  C 8.42790697674418 11.6030886627907  7.83256722383721 12  7.43565588662791 12  C 6.84031613372093 12  6.44340479651163 11.6031159156977  6.55813953488372 11.0077489098837  L 6.55813953488372 9.22170239825581  Z " fill-rule="nonzero" fill="#999999" stroke="none" transform="matrix(1 0 0 1 288 12 )" />
  </g>
</svg>