<?xml version="1.0" encoding="utf-8"?>
<svg version="1.1" xmlns:xlink="http://www.w3.org/1999/xlink" width="24px" height="24px" xmlns="http://www.w3.org/2000/svg">
  <g transform="matrix(1 0 0 1 -168 -12 )">
    <path d="M 1.17919075144508 12.5720930232558  C 1.17919075144508 6.44651162790698  6.13179190751445 1.46511627906977  12.2219653179191 1.46511627906977  C 16.22544718533 1.46511627906977  19.7373476947345 3.61773654650031  21.6739334583373 6.83294291732661  C 22.4741650833078 4.77180772800199  22.5204313813068 3.12819544285934  21.7803468208092 2.35813953488372  C 21.1560693641619 1.71627906976744  19.8936416184971 1.6046511627907  18.228901734104 2.06511627906977  C 18.1040462427746 2.09302325581395  17.993063583815 2.13488372093023  17.8682080924855 2.17674418604651  C 17.4242774566474 2.31627906976744  16.9664739884393 2.06511627906977  16.8277456647399 1.63255813953488  C 16.6890173410405 1.18604651162791  16.9387283236994 0.725581395348836  17.3687861271676 0.586046511627905  L 17.7849710982659 0.460465116279071  C 20.6843930635838 -0.348837209302326  22.2104046242775 0.404651162790694  22.9595375722543 1.18604651162791  C 24.3052023121387 2.56744186046511  24.3052023121387 5.00930232558139  22.9595375722543 8.05116279069767  C 22.8507966230769 8.29940300561496  22.734200352708 8.54969964302004  22.6100330752187 8.80168094952854  C 23.0336902920805 9.9793292334811  23.2647398843931 11.2490217472488  23.2647398843931 12.5720930232558  C 23.2647398843931 18.6976744186047  18.3121387283237 23.6790697674419  12.2219653179191 23.6790697674419  C 10.737255819338 23.6790697674419  9.32015503041017 23.3830132220015  8.02593853232195 22.8464970818477  C 7.9632046389896 22.8733517171154  7.90060652005248 22.8997146047252  7.83815028901734 22.9255813953488  C 6.38150289017341 23.5674418604651  5.0635838150289 23.8744186046512  3.92601156069364 23.8744186046512  C 2.70520231213873 23.8744186046512  1.72023121387283 23.5116279069767  1.02658959537572 22.8  C 0.332947976878612 22.0883720930233  -0.360693641618497 20.693023255814  0.263583815028901 18.1116279069767  C 0.291329479768786 18.0139534883721  0.31907514450867 17.9023255813954  0.346820809248555 17.8046511627907  C 0.471676300578034 17.3581395348837  0.929479768786128 17.093023255814  1.37341040462428 17.2186046511628  C 1.81734104046243 17.3441860465116  2.08092485549133 17.8046511627907  1.95606936416185 18.2511627906977  C 1.92832369942196 18.3348837209302  1.91445086705202 18.4186046511628  1.88670520231214 18.5023255813954  C 1.63699421965318 19.506976744186  1.49826589595376 20.8744186046512  2.21965317919075 21.6139534883721  C 2.89822913407691 22.3079455962298  4.28700481451232 22.3677646165926  6.08731411981382 21.8040699942743  C 3.12948228001322 19.8094697989131  1.17919075144508 16.4160666988855  1.17919075144508 12.5720930232558  Z M 8.0451417803965 21.0178486932322  C 10.282794227317 19.9403859611715  12.8922628625917 18.1204768990934  15.4820809248555 15.5720930232558  C 17.720935386936 13.366652296554  19.5661790689814 10.9777460800655  20.7862111507471 8.72668111475945  C 19.3212954600022 5.4356462475493  16.0353246679482 3.13953488372093  12.2219653179191 3.13953488372093  C 7.04739884393063 3.13953488372093  2.84393063583815 7.36744186046512  2.84393063583815 12.5720930232558  C 2.84393063583815 16.2678778429232  4.96345234128606 19.4711573311573  8.0451417803965 21.0178486932322  Z M 14.4277456647399 9.86511627906977  C 14.4277456647399 8.90232558139535  15.2046242774566 8.12093023255814  16.1618497109827 8.12093023255814  C 17.1190751445087 8.12093023255814  17.8959537572254 8.90232558139535  17.8959537572254 9.86511627906977  C 17.8959537572254 10.8279069767442  17.1190751445087 11.6093023255814  16.1618497109827 11.6093023255814  C 15.2046242774566 11.6093023255814  14.4277456647399 10.8279069767442  14.4277456647399 9.86511627906977  Z M 5.23005780346821 14.9162790697674  C 5.23005780346821 13.3813953488372  6.478612716763 12.1255813953488  8.00462427745665 12.1255813953488  C 9.53063583815029 12.1255813953488  10.7791907514451 13.3813953488372  10.7791907514451 14.9162790697674  C 10.7791907514451 16.4511627906977  9.54450867052023 17.706976744186  8.00462427745665 17.706976744186  C 6.478612716763 17.706976744186  5.23005780346821 16.4511627906977  5.23005780346821 14.9162790697674  Z M 12.2219653179191 22.0046511627907  C 17.3965317919075 22.0046511627907  21.6 17.7767441860465  21.6 12.5720930232558  C 21.6 11.990352213781  21.547484975112 11.420814124227  21.4469685583268 10.8680187130162  C 20.199157494633 12.8470141463079  18.552084155144 14.8660799113209  16.6335260115607 16.7581395348837  C 14.54974092437 18.8131440396166  12.3169981274628 20.5385363099419  10.1590413143484 21.7751385104084  C 10.8229372096124 21.925363804055  11.5133455978891 22.0046511627907  12.2219653179191 22.0046511627907  Z M 11.4728323699422 6.7953488372093  C 11.4728323699422 7.50697674418605  10.9040462427746 8.07906976744186  10.1965317919075 8.07906976744186  C 9.48901734104046 8.07906976744186  8.92023121387283 7.50697674418605  8.92023121387283 6.7953488372093  C 8.92023121387283 6.08372093023256  9.48901734104046 5.51162790697674  10.1965317919075 5.51162790697674  C 10.9040462427746 5.51162790697674  11.4728323699422 6.08372093023256  11.4728323699422 6.7953488372093  Z M 15.8150289017341 9.86511627906977  C 15.8150289017341 10.0604651162791  15.9676300578035 10.2139534883721  16.1618497109827 10.2139534883721  C 16.3560693641619 10.2139534883721  16.5086705202312 10.0604651162791  16.5086705202312 9.86511627906977  C 16.5086705202312 9.66976744186047  16.3560693641619 9.51627906976744  16.1618497109827 9.51627906976744  C 15.9676300578035 9.51627906976744  15.8150289017341 9.66976744186047  15.8150289017341 9.86511627906977  Z M 6.89479768786127 14.9162790697674  C 6.89479768786127 15.5302325581395  7.39421965317919 16.0325581395349  8.00462427745665 16.0325581395349  C 8.6150289017341 16.0325581395349  9.11445086705202 15.5302325581395  9.11445086705202 14.9162790697674  C 9.11445086705202 14.3023255813953  8.6150289017341 13.8  8.00462427745665 13.8  C 7.39421965317919 13.8  6.89479768786127 14.3023255813953  6.89479768786127 14.9162790697674  Z " fill-rule="nonzero" fill="#999999" stroke="none" transform="matrix(1 0 0 1 168 12 )" />
  </g>
</svg>