<?xml version="1.0" encoding="utf-8"?>
<svg version="1.1" xmlns:xlink="http://www.w3.org/1999/xlink" width="24px" height="20px" xmlns="http://www.w3.org/2000/svg">
  <g transform="matrix(1 0 0 1 -48 -14 )">
    <path d="M 23.9813806829268 15.6908280928592  C 23.9765853658537 13.3413153100206  22.0728444878049 11.4299288862768  19.7231391219512 11.4299288862768  L 0.00479531707317073 11.4299288862768  L 0.00479531707317073 12.7443079635616  C 1.31871219512195 13.0813282397884  2.29695687804878 14.2705283573318  2.29695687804878 15.6956426682339  C 2.29695687804878 17.1207569791361  1.31871219512195 18.3147716720541  0.00479531707317087 18.6469773729063  L 0.00479531707317087 20  L 19.7279344390244 20  C 22.077639804878 19.961356450191  23.9813806829268 18.0499700264473  23.9813806829268 15.6908280928592  Z M 21.6844238048781 4.34768851013811  C 21.6892191219512 2.9177596238613  22.6626684878049 1.72374493094329  23.9813806829268 1.3915392300911  L 23.9813806829268 0  L 4.25344624390244 0  C 1.90853619512195 0.0723455774316774  0 1.98373200117543  0 4.34287393476344  C 0 6.69720129297679  1.90374087804878 8.61340229209521  4.25344624390244 9  L 23.9765853658537 9  L 23.9765853658537 7.29902321481046  C 22.6626684878049 6.9620029385836  21.6844238048781 5.76798824566559  21.6844238048781 4.34768851013811  Z " fill-rule="nonzero" fill="#23b995" stroke="none" transform="matrix(1 0 0 1 48 14 )" />
  </g>
</svg>