<?xml version="1.0" encoding="utf-8"?>
<svg version="1.1" xmlns:xlink="http://www.w3.org/1999/xlink" width="20px" height="20px" xmlns="http://www.w3.org/2000/svg">
  <g transform="matrix(1 0 0 1 -125 -14 )">
    <path d="M 19.9746673253677 9.32629758315059  L 17.9651121323529 9.31390832876462  C 17.9878731617647 9.55830402503655  18.0000766544118 9.80576199287281  18.0000766544118 10.0560717973319  C 18.0000766544118 14.4475738989401  14.4191163143382 18.0075695815058  10.0018053538603 18.0075695815058  C 5.58449439338235 18.0075695815058  2.00351056985294 14.4475738989401  2.00351056985294 10.0560717973319  C 2.00351056985294 5.66456969572369  5.58447090992647 2.1045740131579  10.0017818704044 2.1045740131579  C 11.5767140625 2.1045740131579  13.0451067325368 2.55738980263158  14.2830203584559 3.33880153508772  L 15.315637890625 1.61115417123538  C 13.7762110294118 0.648999497441521  11.9544109145221 0.0923944170321642  10.0018053768382 0.0923944170321642  C 4.48013729319853 0.0923944170321642  0.00394862132353131 4.54240654696637  0.00394862132353131 10.0317841739766  C 0.00394862132353131 15.5211618009868  4.48013729319853 19.9711739309211  10.0018053768382 19.9711739309211  C 15.5234734604779 19.9711739309211  19.9996621323529 15.5211618009868  19.9996621323529 10.0317841739766  C 19.9996621323529 9.79456489857456  19.9911032398897 9.55935594846491  19.9746673253677 9.32629758315059  Z " fill-rule="nonzero" fill="#999999" stroke="none" transform="matrix(1 0 0 1 125 14 )" />
  </g>
</svg>