<?xml version="1.0" encoding="utf-8"?>
<svg version="1.1" xmlns:xlink="http://www.w3.org/1999/xlink" width="20px" height="20px" xmlns="http://www.w3.org/2000/svg">
  <g transform="matrix(1 0 0 1 -305 -14 )">
    <path d="M 15.4735942579252 13.6000000000281  L 4.51686823011639 13.6000016783878  L 1.86159281499335 19.4528896289111  C 1.71166171491653 19.7843382603211  1.36564674902053 19.9995855741428  0.982489424035904 19.9997580078125  C 0.454809284488822 19.999520582354  0.0271739147536556 19.5973508776422  0.0271739147536556 19.101331489649  C 0.0271739147536556 18.9805206383001  0.0530947297555429 18.8609506929137  0.103386033078458 18.7497731445422  L 8.36084929770612 0.546868379076988  C 8.51080997052652 0.215354452484904  8.85692759531449 9.41495777051802E-05  9.24016044714096 0  L 10.7309585688165 0  C 11.1134660913679 0  11.4591380259287 0.214362262051432  11.6096464220412 0.544915273608247  L 19.8964061876662 18.7478200390735  C 19.947275476608 18.8595430503688  19.9735035764769 18.9798056309059  19.9735035764769 19.1013313867266  C 19.9735035764769 19.597525057821  19.5455839523823 19.9997695044664  19.0177183448305 19.9997695044664  C 18.6352088633323 19.9997695044664  18.2895377429772 19.7853982136114  18.1390305019947 19.4548427343798  L 15.4735942579252 13.6000000000281  Z M 9.87159397855718 1.79685326187851  L 5.31722822909592 11.8357942969108  L 14.6704237340983 11.8357955853164  L 10.1001483959441 1.79685326187851  L 9.87159397855718 1.79685326187851  Z " fill-rule="nonzero" fill="#999999" stroke="none" transform="matrix(1 0 0 1 305 14 )" />
  </g>
</svg>