<?xml version="1.0" encoding="utf-8"?>
<svg version="1.1" xmlns:xlink="http://www.w3.org/1999/xlink" width="22px" height="22px" xmlns="http://www.w3.org/2000/svg">
  <g transform="matrix(1 0 0 1 -214 -13 )">
    <path d="M 0.0111675126903547 11.0111675126904  C 0.0111675126903547 17.0751269035533  4.93604060913705 22  11 22  C 17.0639593908629 22  21.9888324873096 17.0751269035533  21.9888324873096 11.0111675126904  C 21.9888324873096 4.94720812182741  17.0751269035533 0.0223350253807094  11 0.0223350253807094  C 4.9248730964467 0.0223350253807094  0.0111675126903547 4.94720812182741  0.0111675126903547 11.0111675126904  Z M 11 20.0680203045685  C 5.99695431472081 20.0680203045685  1.94314720812183 16.0142131979695  1.94314720812183 11.0111675126904  C 1.94314720812183 6.00812182741117  5.99695431472081 1.95431472081218  11 1.95431472081218  C 16.0030456852792 1.95431472081218  20.0568527918782 6.00812182741117  20.0568527918782 11.0111675126904  C 20.0568527918782 16.0142131979695  16.0030456852792 20.0680203045685  11 20.0680203045685  Z M 11.6142131979695 3.3502538071066  L 11.6142131979695 18.6832487309645  C 15.4893401015228 18.6832487309645  18.7055837563452 15.2548223350254  18.7055837563452 11.0223350253807  C 18.7055837563452 6.78984771573603  15.4893401015228 3.3502538071066  11.6142131979695 3.3502538071066  Z " fill-rule="nonzero" fill="#999999" stroke="none" transform="matrix(1 0 0 1 214 13 )" />
  </g>
</svg>