<?xml version="1.0" encoding="utf-8"?>
<svg version="1.1" xmlns:xlink="http://www.w3.org/1999/xlink" width="22px" height="22px" xmlns="http://www.w3.org/2000/svg">
  <g transform="matrix(1 0 0 1 -34 -13 )">
    <path d="M 18.8571428632813 2  L 3.14285713671875 2  C 2.27498110296543 1.57142856835938  1.57142856835938 2.27498110296543  2 3.14285713671875  L 2 18.8571428632813  C 1.57142856835938 19.7250188970346  2.27498110296543 20.4285714316406  3.14285713671875 20  L 18.8571428632813 20  C 19.7250188970346 20.4285714316406  20.4285714316406 19.7250188970346  20 18.8571428632813  L 20 3.14285713671875  C 20.4285714316406 2.27498110296543  19.7250188970346 1.57142856835938  18.8571428632813 2  Z M 0 3.14285713671875  C 0 1.40710506921211  1.40710506921211 0  3.14285713671875 0  L 18.8571428632813 0  C 20.5928949307879 0  22 1.40710506921211  22 3.14285713671875  L 22 18.8571428632813  C 22 20.5928949307879  20.5928949307879 22  18.8571428632813 22  L 3.14285713671875 22  C 1.40710506921211 22  0 20.5928949307879  0 18.8571428632813  L 0 3.14285713671875  Z M 6.28571429492188 5.5  L 4.71428570507813 5.5  L 4.71428570507813 7.07142856835937  L 6.28571429492188 7.07142856835937  L 6.28571429492188 5.5  Z M 17.2857142949219 5.5  L 7.85714286328125 5.5  L 7.85714286328125 7.07142856835937  L 17.2857142949219 7.07142856835937  L 17.2857142949219 5.5  Z M 6.28571429492188 10.2142857050781  L 4.71428570507813 10.2142857050781  L 4.71428570507813 11.7857142949219  L 6.28571429492188 11.7857142949219  L 6.28571429492188 10.2142857050781  Z M 17.2857142949219 10.2142857050781  L 7.85714286328125 10.2142857050781  L 7.85714286328125 11.7857142949219  L 17.2857142949219 11.7857142949219  L 17.2857142949219 10.2142857050781  Z M 6.28571429492188 14.9285714316406  L 4.71428570507813 14.9285714316406  L 4.71428570507813 16.5  L 6.28571429492188 16.5  L 6.28571429492188 14.9285714316406  Z M 17.2857142949219 14.9285714316406  L 7.85714286328125 14.9285714316406  L 7.85714286328125 16.5  L 17.2857142949219 16.5  L 17.2857142949219 14.9285714316406  Z " fill-rule="nonzero" fill="#999999" stroke="none" transform="matrix(1 0 0 1 34 13 )" />
  </g>
</svg>