<?xml version="1.0" encoding="utf-8"?>
<svg version="1.1" xmlns:xlink="http://www.w3.org/1999/xlink" width="18px" height="20px" xmlns="http://www.w3.org/2000/svg">
  <g transform="matrix(1 0 0 1 -571 -170 )">
    <path d="M 8.92879746835443 0.0564971751412433  C 12.631329113924 0.0564971751412433  15.6930379746835 3.37570621468927  15.6930379746835 6.8361581920904  L 13.9129746835443 6.8361581920904  C 13.9129746835443 4.01129943502825  11.7056962025316 1.82203389830509  8.92879746835443 1.82203389830509  C 6.15189873417722 1.82203389830509  3.94462025316456 4.01129943502825  3.94462025316456 6.8361581920904  L 2.16455696202532 6.8361581920904  C 2.16455696202532 3.44632768361582  5.22626582278481 0.0564971751412433  8.92879746835443 0.0564971751412433  Z M 17.9715189873418 18.135593220339  L 17.9715189873418 9.7316384180791  C 17.9715189873418 8.74293785310734  17.1882911392405 7.96610169491525  16.1914556962025 8  L 1.87974683544304 8  C 0.882911392405063 7.96610169491525  0.0996835443037975 8.74293785310734  0.0996835443037975 9.7316384180791  L 0.0996835443037975 18.135593220339  C 0.0996835443037975 19.1242937853107  0.882911392405063 19.9011299435028  1.87974683544304 20  L 16.1914556962025 20  C 17.1882911392405 19.9011299435028  17.9715189873418 19.1242937853107  17.9715189873418 18.135593220339  Z M 10.4240506329114 12.6977401129944  L 10.4240506329114 16.2994350282486  C 10.4240506329114 17.0056497175141  9.85443037974684 17.6412429378531  9.07120253164557 17.6412429378531  L 8.85759493670886 17.6412429378531  C 8.14556962025316 17.6412429378531  7.50474683544304 17.0762711864407  7.50474683544304 16.2994350282486  L 7.50474683544304 12.6977401129944  C 7.50474683544304 11.9915254237288  8.07436708860759 11.3559322033898  8.85759493670886 11.3559322033898  L 9.07120253164557 11.3559322033898  C 9.78322784810127 11.3559322033898  10.4240506329114 11.9209039548023  10.4240506329114 12.6977401129944  Z " fill-rule="nonzero" fill="#ffffff" stroke="none" transform="matrix(1 0 0 1 571 170 )" />
  </g>
</svg>