<?xml version="1.0" encoding="utf-8"?>
<svg version="1.1" xmlns:xlink="http://www.w3.org/1999/xlink" width="60px" height="60px" xmlns="http://www.w3.org/2000/svg">
  <g transform="matrix(1 0 0 1 -550 -150 )">
    <path d="M 580 150.5  C 596.52 150.5  609.5 163.48  609.5 180  C 609.5 196.52  596.52 209.5  580 209.5  C 563.48 209.5  550.5 196.52  550.5 180  C 550.5 163.48  563.48 150.5  580 150.5  Z " fill-rule="nonzero" fill="#ffffff" stroke="none" fill-opacity="0" />
    <path d="M 580 150.5  C 596.52 150.5  609.5 163.48  609.5 180  C 609.5 196.52  596.52 209.5  580 209.5  C 563.48 209.5  550.5 196.52  550.5 180  C 550.5 163.48  563.48 150.5  580 150.5  Z " stroke-width="1" stroke="#ffffff" fill="none" stroke-opacity="0.6" />
  </g>
</svg>