<?xml version="1.0" encoding="utf-8"?>
<svg version="1.1" xmlns:xlink="http://www.w3.org/1999/xlink" width="430px" height="258px" xmlns="http://www.w3.org/2000/svg">
  <defs>
    <mask fill="white" id="clip6675">
      <path d="M 0 174  C 0 166.16  10.56 160  24 160  C 37.44 160  48 166.16  48 174  C 48 181.84  37.44 188  24 188  C 10.56 188  0 181.84  0 174  Z M 116 244  C 116 236.16  126.56 230  140 230  C 153.44 230  164 236.16  164 244  C 164 251.84  153.44 258  140 258  C 126.56 258  116 251.84  116 244  Z M 406 70  C 419.44 70  430 76.16  430 84  C 430 91.84  419.44 98  406 98  C 392.56 98  382 91.84  382 84  C 382 76.16  392.56 70  406 70  Z M 314 14  C 314 21.84  303.44 28  290 28  C 276.56 28  266 21.84  266 14  C 266 6.16  276.56 0  290 0  C 303.44 0  314 6.16  314 14  Z " fill-rule="evenodd" />
    </mask>
  </defs>
  <g transform="matrix(1 0 0 1 -167 -193 )">
    <path d="M 0 174  C 0 166.16  10.56 160  24 160  C 37.44 160  48 166.16  48 174  C 48 181.84  37.44 188  24 188  C 10.56 188  0 181.84  0 174  Z M 116 244  C 116 236.16  126.56 230  140 230  C 153.44 230  164 236.16  164 244  C 164 251.84  153.44 258  140 258  C 126.56 258  116 251.84  116 244  Z M 406 70  C 419.44 70  430 76.16  430 84  C 430 91.84  419.44 98  406 98  C 392.56 98  382 91.84  382 84  C 382 76.16  392.56 70  406 70  Z M 314 14  C 314 21.84  303.44 28  290 28  C 276.56 28  266 21.84  266 14  C 266 6.16  276.56 0  290 0  C 303.44 0  314 6.16  314 14  Z " fill-rule="nonzero" fill="#f2f2f2" stroke="none" fill-opacity="0" transform="matrix(1 0 0 1 167 193 )" />
    <path d="M 0 174  C 0 166.16  10.56 160  24 160  C 37.44 160  48 166.16  48 174  C 48 181.84  37.44 188  24 188  C 10.56 188  0 181.84  0 174  Z " stroke-width="2" stroke-dasharray="3,1" stroke="#999999" fill="none" transform="matrix(1 0 0 1 167 193 )" mask="url(#clip6675)" />
    <path d="M 116 244  C 116 236.16  126.56 230  140 230  C 153.44 230  164 236.16  164 244  C 164 251.84  153.44 258  140 258  C 126.56 258  116 251.84  116 244  Z " stroke-width="2" stroke-dasharray="3,1" stroke="#999999" fill="none" transform="matrix(1 0 0 1 167 193 )" mask="url(#clip6675)" />
    <path d="M 406 70  C 419.44 70  430 76.16  430 84  C 430 91.84  419.44 98  406 98  C 392.56 98  382 91.84  382 84  C 382 76.16  392.56 70  406 70  Z " stroke-width="2" stroke-dasharray="3,1" stroke="#999999" fill="none" transform="matrix(1 0 0 1 167 193 )" mask="url(#clip6675)" />
    <path d="M 314 14  C 314 21.84  303.44 28  290 28  C 276.56 28  266 21.84  266 14  C 266 6.16  276.56 0  290 0  C 303.44 0  314 6.16  314 14  Z " stroke-width="2" stroke-dasharray="3,1" stroke="#999999" fill="none" transform="matrix(1 0 0 1 167 193 )" mask="url(#clip6675)" />
  </g>
</svg>