<?xml version="1.0" encoding="utf-8"?>
<svg version="1.1" xmlns:xlink="http://www.w3.org/1999/xlink" width="720px" height="480px" xmlns="http://www.w3.org/2000/svg">
  <defs>
    <mask fill="white" id="clip6673">
      <path d="M 0 236.507276507277  C 0 102.94553014553  102.277428180574 0.997920997920998  246.238030095759 0.997920997920998  C 319.124487004104 -0.997920997920998  413.045491186214 61.6144821352798  486.56634746922 72.8482328482329  C 612.009104470315 92.0154832332307  724.924760601915 88.8149688149688  719.015047879617 194.594594594595  C 709.770568841583 419.383423760576  461.942544459644 488.981288981289  293.515731874145 479.002079002079  C 125.088919288646 469.022869022869  0 370.069022869023  0 236.507276507277  Z " fill-rule="evenodd" />
    </mask>
  </defs>
  <g transform="matrix(1 0 0 1 -40 -60 )">
    <path d="M 0 236.507276507277  C 0 102.94553014553  102.277428180574 0.997920997920998  246.238030095759 0.997920997920998  C 319.124487004104 -0.997920997920998  413.045491186214 61.6144821352798  486.56634746922 72.8482328482329  C 612.009104470315 92.0154832332307  724.924760601915 88.8149688149688  719.015047879617 194.594594594595  C 709.770568841583 419.383423760576  461.942544459644 488.981288981289  293.515731874145 479.002079002079  C 125.088919288646 469.022869022869  0 370.069022869023  0 236.507276507277  Z " fill-rule="nonzero" fill="#efefef" stroke="none" transform="matrix(1 0 0 1 40 60 )" />
    <path d="M 0 236.507276507277  C 0 102.94553014553  102.277428180574 0.997920997920998  246.238030095759 0.997920997920998  C 319.124487004104 -0.997920997920998  413.045491186214 61.6144821352798  486.56634746922 72.8482328482329  C 612.009104470315 92.0154832332307  724.924760601915 88.8149688149688  719.015047879617 194.594594594595  C 709.770568841583 419.383423760576  461.942544459644 488.981288981289  293.515731874145 479.002079002079  C 125.088919288646 469.022869022869  0 370.069022869023  0 236.507276507277  Z " stroke-width="2" stroke-dasharray="3,1" stroke="#999999" fill="none" transform="matrix(1 0 0 1 40 60 )" mask="url(#clip6673)" />
  </g>
</svg>