<?xml version="1.0" encoding="utf-8"?>
<svg version="1.1" xmlns:xlink="http://www.w3.org/1999/xlink" width="394px" height="236px" xmlns="http://www.w3.org/2000/svg">
  <defs>
    <mask fill="white" id="clip6678">
      <path d="M 0 163  C 0 160.76  2.63999999999999 159  6 159  C 9.36000000000001 159  12 160.76  12 163  C 12 165.24  9.36000000000001 167  6 167  C 2.63999999999999 167  0 165.24  0 163  Z M 116 232.5  C 116 230.54  118.64 229  122 229  C 125.36 229  128 230.54  128 232.5  C 128 234.46  125.36 236  122 236  C 118.64 236  116 234.46  116 232.5  Z M 388 69  C 391.36 69  394 70.76  394 73  C 394 75.24  391.36 77  388 77  C 384.64 77  382 75.24  382 73  C 382 70.76  384.64 69  388 69  Z M 278 3.5  C 278 5.45999999999999  275.36 7  272 7  C 268.64 7  266 5.45999999999999  266 3.5  C 266 1.54000000000001  268.64 0  272 0  C 275.36 0  278 1.54000000000001  278 3.5  Z " fill-rule="evenodd" />
    </mask>
  </defs>
  <g transform="matrix(1 0 0 1 -175 -164 )">
    <path d="M 0 163  C 0 160.76  2.63999999999999 159  6 159  C 9.36000000000001 159  12 160.76  12 163  C 12 165.24  9.36000000000001 167  6 167  C 2.63999999999999 167  0 165.24  0 163  Z M 116 232.5  C 116 230.54  118.64 229  122 229  C 125.36 229  128 230.54  128 232.5  C 128 234.46  125.36 236  122 236  C 118.64 236  116 234.46  116 232.5  Z M 388 69  C 391.36 69  394 70.76  394 73  C 394 75.24  391.36 77  388 77  C 384.64 77  382 75.24  382 73  C 382 70.76  384.64 69  388 69  Z M 278 3.5  C 278 5.45999999999999  275.36 7  272 7  C 268.64 7  266 5.45999999999999  266 3.5  C 266 1.54000000000001  268.64 0  272 0  C 275.36 0  278 1.54000000000001  278 3.5  Z " fill-rule="nonzero" fill="#f2f2f2" stroke="none" fill-opacity="0" transform="matrix(1 0 0 1 175 164 )" />
    <path d="M 0 163  C 0 160.76  2.63999999999999 159  6 159  C 9.36000000000001 159  12 160.76  12 163  C 12 165.24  9.36000000000001 167  6 167  C 2.63999999999999 167  0 165.24  0 163  Z " stroke-width="2" stroke-dasharray="3,1" stroke="#999999" fill="none" transform="matrix(1 0 0 1 175 164 )" mask="url(#clip6678)" />
    <path d="M 116 232.5  C 116 230.54  118.64 229  122 229  C 125.36 229  128 230.54  128 232.5  C 128 234.46  125.36 236  122 236  C 118.64 236  116 234.46  116 232.5  Z " stroke-width="2" stroke-dasharray="3,1" stroke="#999999" fill="none" transform="matrix(1 0 0 1 175 164 )" mask="url(#clip6678)" />
    <path d="M 388 69  C 391.36 69  394 70.76  394 73  C 394 75.24  391.36 77  388 77  C 384.64 77  382 75.24  382 73  C 382 70.76  384.64 69  388 69  Z " stroke-width="2" stroke-dasharray="3,1" stroke="#999999" fill="none" transform="matrix(1 0 0 1 175 164 )" mask="url(#clip6678)" />
    <path d="M 278 3.5  C 278 5.45999999999999  275.36 7  272 7  C 268.64 7  266 5.45999999999999  266 3.5  C 266 1.54000000000001  268.64 0  272 0  C 275.36 0  278 1.54000000000001  278 3.5  Z " stroke-width="2" stroke-dasharray="3,1" stroke="#999999" fill="none" transform="matrix(1 0 0 1 175 164 )" mask="url(#clip6678)" />
  </g>
</svg>