<?xml version="1.0" encoding="utf-8"?>
<svg version="1.1" xmlns:xlink="http://www.w3.org/1999/xlink" width="24px" height="18px" xmlns="http://www.w3.org/2000/svg">
  <defs>
    <mask fill="white" id="clip6676">
      <path d="M 20.88 17.8104799932855  L 20.879996725081 17.7206703167327  C 21.5761460780977 18.0242180049685  22.2769811162228 18.0498605126569  22.8580232506051 17.7320214524297  C 24.1510610256399 17.0247097327861  24.2966890471868 14.9195069500873  23.188996026848 12.9474696735688  C 22.5718684217022 11.8487910510893  21.7130706859869 11.0537768889839  20.8498342378091 10.6874024317133  L 3.12 0.189477531091137  L 3.12000238445293 0.279329294990332  C 2.42385332426261 -0.0242180268351568  1.72301863603429 -0.0498603771376278  1.14197674939494 0.267978547570369  C -0.151061025639929 0.975290267213962  -0.29668904718681 3.08049304991276  0.811003973152019 5.05253032643127  C 1.42813095429025 6.15120783798374  2.28692757726957 6.94622150326134  3.15016312082236 7.31259650604144  L 20.88 17.8104799932855  Z " fill-rule="evenodd" />
    </mask>
  </defs>
  <g transform="matrix(1 0 0 1 -210 -373 )">
    <path d="M 20.88 17.8104799932855  L 20.879996725081 17.7206703167327  C 21.5761460780977 18.0242180049685  22.2769811162228 18.0498605126569  22.8580232506051 17.7320214524297  C 24.1510610256399 17.0247097327861  24.2966890471868 14.9195069500873  23.188996026848 12.9474696735688  C 22.5718684217022 11.8487910510893  21.7130706859869 11.0537768889839  20.8498342378091 10.6874024317133  L 3.12 0.189477531091137  L 3.12000238445293 0.279329294990332  C 2.42385332426261 -0.0242180268351568  1.72301863603429 -0.0498603771376278  1.14197674939494 0.267978547570369  C -0.151061025639929 0.975290267213962  -0.29668904718681 3.08049304991276  0.811003973152019 5.05253032643127  C 1.42813095429025 6.15120783798374  2.28692757726957 6.94622150326134  3.15016312082236 7.31259650604144  L 20.88 17.8104799932855  Z " fill-rule="nonzero" fill="#d7d7d7" stroke="none" fill-opacity="0" transform="matrix(1 0 0 1 210 373 )" />
    <path d="M 20.88 17.8104799932855  L 20.879996725081 17.7206703167327  C 21.5761460780977 18.0242180049685  22.2769811162228 18.0498605126569  22.8580232506051 17.7320214524297  C 24.1510610256399 17.0247097327861  24.2966890471868 14.9195069500873  23.188996026848 12.9474696735688  C 22.5718684217022 11.8487910510893  21.7130706859869 11.0537768889839  20.8498342378091 10.6874024317133  L 3.12 0.189477531091137  L 3.12000238445293 0.279329294990332  C 2.42385332426261 -0.0242180268351568  1.72301863603429 -0.0498603771376278  1.14197674939494 0.267978547570369  C -0.151061025639929 0.975290267213962  -0.29668904718681 3.08049304991276  0.811003973152019 5.05253032643127  C 1.42813095429025 6.15120783798374  2.28692757726957 6.94622150326134  3.15016312082236 7.31259650604144  L 20.88 17.8104799932855  Z " stroke-width="2" stroke-dasharray="3,1" stroke="#999999" fill="none" transform="matrix(1 0 0 1 210 373 )" mask="url(#clip6676)" />
  </g>
</svg>