<?xml version="1.0" encoding="utf-8"?>
<svg version="1.1" xmlns:xlink="http://www.w3.org/1999/xlink" width="24px" height="14px" xmlns="http://www.w3.org/2000/svg">
  <g transform="matrix(1 0 0 1 -464 -178 )">
    <path d="M 476 178.5  C 482.44 178.5  487.5 181.36  487.5 185  C 487.5 188.64  482.44 191.5  476 191.5  C 469.56 191.5  464.5 188.64  464.5 185  C 464.5 181.36  469.56 178.5  476 178.5  Z " fill-rule="nonzero" fill="#f2f2f2" stroke="none" fill-opacity="0" />
    <path d="M 476 178.5  C 482.44 178.5  487.5 181.36  487.5 185  C 487.5 188.64  482.44 191.5  476 191.5  C 469.56 191.5  464.5 188.64  464.5 185  C 464.5 181.36  469.56 178.5  476 178.5  Z " stroke-width="1" stroke-dasharray="3,1" stroke="#999999" fill="none" stroke-dashoffset="0.5" />
  </g>
</svg>