<?xml version="1.0" encoding="utf-8"?>
<svg version="1.1" xmlns:xlink="http://www.w3.org/1999/xlink" width="50px" height="30px" xmlns="http://www.w3.org/2000/svg">
  <defs>
    <mask fill="white" id="clip6681">
      <path d="M 0 24  L 10 6  L 40 0  L 50 6  L 20 12  L 10 30  L 0 24  Z " fill-rule="evenodd" />
    </mask>
  </defs>
  <g transform="matrix(1 0 0 1 -350 -269 )">
    <path d="M 0 24  L 10 6  L 40 0  L 50 6  L 20 12  L 10 30  L 0 24  Z " fill-rule="nonzero" fill="#333333" stroke="none" fill-opacity="0" transform="matrix(1 0 0 1 350 269 )" />
    <path d="M 0 24  L 10 6  L 40 0  L 50 6  L 20 12  L 10 30  L 0 24  Z " stroke-width="2" stroke-dasharray="3,1" stroke="#999999" fill="none" transform="matrix(1 0 0 1 350 269 )" mask="url(#clip6681)" />
  </g>
</svg>