<?xml version="1.0" encoding="utf-8"?>
<svg version="1.1" xmlns:xlink="http://www.w3.org/1999/xlink" width="106px" height="62px" xmlns="http://www.w3.org/2000/svg">
  <g transform="matrix(1 0 0 1 -68 -139 )">
    <path d="M 121 139.5  C 150.4 139.5  173.5 152.92  173.5 170  C 173.5 187.08  150.4 200.5  121 200.5  C 91.6 200.5  68.5 187.08  68.5 170  C 68.5 152.92  91.6 139.5  121 139.5  Z " fill-rule="nonzero" fill="#939cf7" stroke="none" fill-opacity="0" />
    <path d="M 121 139.5  C 150.4 139.5  173.5 152.92  173.5 170  C 173.5 187.08  150.4 200.5  121 200.5  C 91.6 200.5  68.5 187.08  68.5 170  C 68.5 152.92  91.6 139.5  121 139.5  Z " stroke-width="1" stroke-dasharray="3,1" stroke="#999999" fill="none" stroke-dashoffset="0.5" />
  </g>
</svg>