<?xml version="1.0" encoding="utf-8"?>
<svg version="1.1" xmlns:xlink="http://www.w3.org/1999/xlink" width="70px" height="42px" xmlns="http://www.w3.org/2000/svg">
  <g transform="matrix(1 0 0 1 -86 -251 )">
    <path d="M 121 251.5  C 140.32 251.5  155.5 260.52  155.5 272  C 155.5 283.48  140.32 292.5  121 292.5  C 101.68 292.5  86.5 283.48  86.5 272  C 86.5 260.52  101.68 251.5  121 251.5  Z " fill-rule="nonzero" fill="#cdcffb" stroke="none" fill-opacity="0" />
    <path d="M 121 251.5  C 140.32 251.5  155.5 260.52  155.5 272  C 155.5 283.48  140.32 292.5  121 292.5  C 101.68 292.5  86.5 283.48  86.5 272  C 86.5 260.52  101.68 251.5  121 251.5  Z " stroke-width="1" stroke-dasharray="3,1" stroke="#999999" fill="none" stroke-dashoffset="0.5" />
  </g>
</svg>