<?xml version="1.0" encoding="utf-8"?>
<svg version="1.1" xmlns:xlink="http://www.w3.org/1999/xlink" width="11px" height="6px" xmlns="http://www.w3.org/2000/svg">
  <g transform="matrix(1 0 0 1 -136 -140 )">
    <path d="M 141.5 140.5  C 144.3 140.5  146.5 141.6  146.5 143  C 146.5 144.4  144.3 145.5  141.5 145.5  C 138.7 145.5  136.5 144.4  136.5 143  C 136.5 141.6  138.7 140.5  141.5 140.5  Z " fill-rule="nonzero" fill="#939cf7" stroke="none" fill-opacity="0" />
    <path d="M 141.5 140.5  C 144.3 140.5  146.5 141.6  146.5 143  C 146.5 144.4  144.3 145.5  141.5 145.5  C 138.7 145.5  136.5 144.4  136.5 143  C 136.5 141.6  138.7 140.5  141.5 140.5  Z " stroke-width="1" stroke-dasharray="3,1" stroke="#999999" fill="none" stroke-dashoffset="0.5" />
  </g>
</svg>