<?xml version="1.0" encoding="utf-8"?>
<svg version="1.1" xmlns:xlink="http://www.w3.org/1999/xlink" width="86px" height="46px" xmlns="http://www.w3.org/2000/svg">
  <g transform="matrix(1 0 0 1 -78 -120 )">
    <path d="M 121 120.5  C 144.8 120.5  163.5 130.4  163.5 143  C 163.5 155.6  144.8 165.5  121 165.5  C 97.2 165.5  78.5 155.6  78.5 143  C 78.5 130.4  97.2 120.5  121 120.5  Z " fill-rule="nonzero" fill="#cdcffb" stroke="none" fill-opacity="0" />
    <path d="M 121 120.5  C 144.8 120.5  163.5 130.4  163.5 143  C 163.5 155.6  144.8 165.5  121 165.5  C 97.2 165.5  78.5 155.6  78.5 143  C 78.5 130.4  97.2 120.5  121 120.5  Z " stroke-width="1" stroke-dasharray="3,1" stroke="#999999" fill="none" stroke-dashoffset="0.5" />
  </g>
</svg>