<?xml version="1.0" encoding="utf-8"?>
<svg version="1.1" xmlns:xlink="http://www.w3.org/1999/xlink" width="72px" height="40px" xmlns="http://www.w3.org/2000/svg">
  <g transform="matrix(1 0 0 1 -607 -362 )">
    <path d="M 643 362.5  C 662.88 362.5  678.5 371.08  678.5 382  C 678.5 392.92  662.88 401.5  643 401.5  C 623.12 401.5  607.5 392.92  607.5 382  C 607.5 371.08  623.12 362.5  643 362.5  Z " fill-rule="nonzero" fill="#f2f2f2" stroke="none" fill-opacity="0" />
    <path d="M 643 362.5  C 662.88 362.5  678.5 371.08  678.5 382  C 678.5 392.92  662.88 401.5  643 401.5  C 623.12 401.5  607.5 392.92  607.5 382  C 607.5 371.08  623.12 362.5  643 362.5  Z " stroke-width="1" stroke-dasharray="3,1" stroke="#999999" fill="none" stroke-dashoffset="0.5" />
  </g>
</svg>