<?xml version="1.0" encoding="utf-8"?>
<svg version="1.1" xmlns:xlink="http://www.w3.org/1999/xlink" width="430px" height="258px" xmlns="http://www.w3.org/2000/svg">
  <g transform="matrix(1 0 0 1 0 -20 )">
    <path d="M 7.01895246436973 163.788601780959  L 270.744842483511 5.55265340799036  C 275.088770842891 2.16122241940256  282.039164596131 0  290 0  C 297.962326723119 0  304.913833184031 2.162032227501  309.257598513673 5.55455950484999  L 422.999978248885 73.8000130506689  L 422.798296193341 73.9210222673552  C 427.261324437242 76.4505242281804  430 80.0074129215981  430 84  C 430 87.9933038022928  427.260341089679 91.5507527779436  422.795892488592 94.0803398482379  L 422.997634967198 94.2014190196813  L 159.25823391509 252.444944212259  C 154.914511108769 255.837756920927  147.962714975466 258  140 258  C 132.036517621158 258  125.084148947643 255.837340130272  120.74051028303 252.443963238959  L 7.00197344825088 184.198815931049  L 7.20170380448934 184.078977731415  C 2.73867556187017 181.549475770667  0 177.992587077755  0 174  C 0 170.001662798934  2.74656972263224 166.440279871923  7.22099750421228 163.91009972481  L 7.01895246436973 163.788601780959  Z " fill-rule="nonzero" fill="#3947d3" stroke="none" transform="matrix(1 0 0 1 0 20 )" />
  </g>
</svg>