<?xml version="1.0" encoding="utf-8"?>
<svg version="1.1" xmlns:xlink="http://www.w3.org/1999/xlink" width="160px" height="202px" xmlns="http://www.w3.org/2000/svg">
  <g>
    <path d="M 66 199.41312541486  C 66 199.41312541486  72.75 201.5  82 201.004926108374  C 91.25 200.509852216749  96.8067226890759 198.41312541486  96.8067226890759 198.41312541486  C 96.8067226890759 198.41312541486  80.7142857142857 177.861501780331  111.09243697479 169.836095014434  C 141.470588235295 161.810688248537  152.5 154.646647130288  149.285714285714 144.646402050269  C 146.071428571429 134.646156970251  127.112520019941 144.572068031142  127.899159663866 131.431792480245  C 129.117820644013 111.07489691069  164.172706014194 104.399868236205  158.642857142857 88.9307508901656  C 155.233902295228 79.3945910796035  139.975843593679 91.8568695987142  127.899159663866 81.073415470151  C 102.945320228737 58.7917540104218  129.563416588428 38.9021891883638  104.36974789916 17.731526990622  C 83.6599409996802 0.328729031462238  60.7058969635479 -4.465045095627  49.7478991596641 7.64724623766084  C 33.6931040945452 25.3932212419659  87.6293893737163 71.3349682436322  72.4369747899163 85.8004220731022  C 62.3161935284657 95.4369214753626  42.6727822245165 59.7000804564739  21.1764705882355 68.1529307554227  C 15.370354721479 70.436030715567  11.0268024920905 74.4471155356699  14.2857142857143 81.073415470151  C 20.77004125061 94.257907123686  46.0861525388383 99.3953698646577  43.0252100840335 112.691837414328  C 39.7833048302212 126.774391608953  2.42132904178431 117.485656268448  1.00840336134492 129.498972002595  C -1.17545395073843 148.067087630747  42.151260504202 138.956606900373  58.1512605042021 169.836095014434  C 65.8403698055177 184.67582996929  66 199.41312541486  66 199.41312541486  Z " fill-rule="nonzero" fill="#ffce2c" stroke="none" />
  </g>
</svg>