<?xml version="1.0" encoding="utf-8"?>
<svg version="1.1" xmlns:xlink="http://www.w3.org/1999/xlink" width="98px" height="58px" xmlns="http://www.w3.org/2000/svg">
  <g transform="matrix(1 0 0 1 -60 -170 )">
    <path d="M 109 170  C 136.44 170  158 182.76  158 199  C 158 215.24  136.44 228  109 228  C 81.56 228  60 215.24  60 199  C 60 182.76  81.56 170  109 170  Z " fill-rule="nonzero" fill="#000000" stroke="none" fill-opacity="0" />
    <path d="M 109 170.5  C 136.16 170.5  157.5 183.04  157.5 199  C 157.5 214.96  136.16 227.5  109 227.5  C 81.84 227.5  60.5 214.96  60.5 199  C 60.5 183.04  81.84 170.5  109 170.5  Z " stroke-width="1" stroke="#999999" fill="none" />
  </g>
</svg>