<?xml version="1.0" encoding="utf-8"?>
<svg version="1.1" xmlns:xlink="http://www.w3.org/1999/xlink" width="106px" height="62px" xmlns="http://www.w3.org/2000/svg">
  <g transform="matrix(1 0 0 1 -37 -51 )">
    <path d="M 90 51  C 119.68 51  143 64.64  143 82  C 143 99.36  119.68 113  90 113  C 60.32 113  37 99.36  37 82  C 37 64.64  60.32 51  90 51  Z " fill-rule="nonzero" fill="#939cf7" stroke="none" fill-opacity="0" />
    <path d="M 90 51.5  C 119.4 51.5  142.5 64.92  142.5 82  C 142.5 99.08  119.4 112.5  90 112.5  C 60.6 112.5  37.5 99.08  37.5 82  C 37.5 64.92  60.6 51.5  90 51.5  Z " stroke-width="1" stroke="#999999" fill="none" />
  </g>
</svg>