<?xml version="1.0" encoding="utf-8"?>
<svg version="1.1" xmlns:xlink="http://www.w3.org/1999/xlink" width="56px" height="34px" xmlns="http://www.w3.org/2000/svg">
  <g transform="matrix(1 0 0 1 -52 -219 )">
    <path d="M 80 219  C 95.68 219  108 226.48  108 236  C 108 245.52  95.68 253  80 253  C 64.32 253  52 245.52  52 236  C 52 226.48  64.32 219  80 219  Z " fill-rule="nonzero" fill="#6370fa" stroke="none" fill-opacity="0" />
    <path d="M 80 219.5  C 95.4 219.5  107.5 226.76  107.5 236  C 107.5 245.24  95.4 252.5  80 252.5  C 64.6 252.5  52.5 245.24  52.5 236  C 52.5 226.76  64.6 219.5  80 219.5  Z " stroke-width="1" stroke="#999999" fill="none" />
  </g>
</svg>