<?xml version="1.0" encoding="utf-8"?>
<svg version="1.1" xmlns:xlink="http://www.w3.org/1999/xlink" width="86px" height="46px" xmlns="http://www.w3.org/2000/svg">
  <g transform="matrix(1 0 0 1 -47 -32 )">
    <path d="M 90 32  C 114.08 32  133 42.12  133 55  C 133 67.88  114.08 78  90 78  C 65.92 78  47 67.88  47 55  C 47 42.12  65.92 32  90 32  Z " fill-rule="nonzero" fill="#cdcffb" stroke="none" fill-opacity="0" />
    <path d="M 90 32.5  C 113.8 32.5  132.5 42.4  132.5 55  C 132.5 67.6  113.8 77.5  90 77.5  C 66.2 77.5  47.5 67.6  47.5 55  C 47.5 42.4  66.2 32.5  90 32.5  Z " stroke-width="1" stroke="#999999" fill="none" />
  </g>
</svg>