<?xml version="1.0" encoding="utf-8"?>
<svg version="1.1" xmlns:xlink="http://www.w3.org/1999/xlink" width="100px" height="164px" xmlns="http://www.w3.org/2000/svg">
  <g transform="matrix(1 0 0 1 0 -1 )">
    <path d="M 100 79  C 100 46.7061088226382  85.3675389271325 18.4028888469676  62.2394888353856 0.227210557947978  C 57.2728827395375 0.964481581626222  52.9864820723322 3.06751749092389  49.7478991596641 6.64724623766084  C 33.6931040945452 24.3932212419659  87.6293893737163 70.3349682436322  72.4369747899163 84.8004220731022  C 62.3161935284657 94.4369214753626  42.6727822245165 58.7000804564739  21.1764705882355 67.1529307554227  C 15.370354721479 69.436030715567  11.0268024920905 73.4471155356699  14.2857142857143 80.073415470151  C 20.77004125061 93.257907123686  46.0861525388383 98.3953698646577  43.0252100840335 111.691837414328  C 39.7833048302212 125.774391608953  2.42132904178431 116.485656268448  1.00840336134492 128.498972002595  C -1.03041209710662 145.833877981812  36.5968821681113 139.04466955142  54.6230421953895 163.192834708838  C 82.1085694530391 145.539593421669  100 114.709537239966  100 79  Z " fill-rule="nonzero" fill="#ffffff" stroke="none" fill-opacity="0.298039215686275" transform="matrix(1 0 0 1 0 1 )" />
  </g>
</svg>