<?xml version="1.0" encoding="utf-8"?>
<svg version="1.1" xmlns:xlink="http://www.w3.org/1999/xlink" width="394px" height="236px" xmlns="http://www.w3.org/2000/svg">
  <g transform="matrix(1 0 0 1 -18 -11 )">
    <path d="M 267.000032492696 1.00001949561742  L 267.393066463886 1.23583948799315  C 268.486061027466 0.476126403248756  270.131728237649 0  272 0  C 273.868543529531 0  275.514417740073 0.476264932282802  276.607409997576 1.23617171873053  L 277.000558232499 1.00033548731608  L 392.187999886817 70.1128130988216  L 392.477870213717 70.3132746821879  C 393.428093390963 71.0188267501546  394 71.9574218651649  394 73  C 394 74.0424770724271  393.428204261229 74.9809912832594  392.500310431436 75.6998135071867  L 392.187711197656 75.8873730312019  L 126.999988301612 234.999992980967  L 126.606933535965 234.764160512111  C 125.513938972384 235.523873596795  123.868271762266 236  122 236  C 120.131456470469 236  118.485582259927 235.523735067717  117.392590002424 234.763828281269  L 116.999441767501 234.999664512684  L 1.81200011601621 165.887186902879  L 1.52212978628307 165.686725317812  C 0.571906609036972 164.981173249845  0 164.042578134835  0 163  C 0 161.957607640483  0.571702812960979 161.019161246959  1.49942898423774 160.300342609457  L 1.81229308293521 160.112624196186  L 267.000032492696 1.00001949561742  Z " fill-rule="nonzero" fill="#000751" stroke="none" transform="matrix(1 0 0 1 18 11 )" />
  </g>
</svg>