<?xml version="1.0" encoding="utf-8"?>
<svg version="1.1" xmlns:xlink="http://www.w3.org/1999/xlink" width="20px" height="20px" xmlns="http://www.w3.org/2000/svg">
  <g>
    <path d="M 1.17786829268289 0.0899910048780725  C 0.528542282926878 -0.143403102439038  0 0.238019160975625  0 0.940925912195098  L 0 15.3341677463414  C 0 16.037074497561  0.528542282926878 16.7908375609756  1.17786829268289 17.0233235121951  L 9.57369900487799 19.990243902439  L 9.57369900487799 3.05691137560973  L 1.17786829268289 0.0899910048780725  Z M 20 0.940925912195098  C 19.9792617951219 0.238019160975625  19.4507195121952 -0.147035707317059  18.7932201756098 0.072736175609748  L 15.8172183024391 1.36412300487802  L 15.8172183024391 15.7573648390244  C 15.8172183024391 16.4593634536585  15.3513382439024 17.344808  14.7764803902439 17.7298628682927  L 12.4870386146341 19.2837045463415  L 18.7932201560975 17.0060687024391  C 19.4507195121952 16.7817560780488  19.9792617951219 16.0361663609756  20 15.3341677463414  L 20 0.940925912195098  Z M 13.9437084487805 17.3066657756098  C 14.518566302439 16.9207027707317  14.9844463609757 16.0361663609756  15 15.3341677463414  L 15 0.940925912195098  C 14.9844463609757 0.238927297560963  14.518566302439 -0.0117216195121728  13.9437084487805 0.373333248780511  L 10.4055628097561 3.05781951219512  L 10.4055628097561 19.990243902439  L 13.9437084487805 17.3066657756098  Z " fill-rule="nonzero" fill="#999999" stroke="none" />
  </g>
</svg>