<?xml version="1.0" encoding="utf-8"?>
<svg version="1.1" xmlns:xlink="http://www.w3.org/1999/xlink" width="20px" height="5px" xmlns="http://www.w3.org/2000/svg">
  <g transform="matrix(1 0 0 1 0 -15 )">
    <path d="M 13.9437084487805 2.30666577560976  C 14.3453073039864 2.03702989967212  14.6937195858259 1.52406545439163  14.8725610598699 1  L 10.4055628097561 0.999943605281942  L 10.4055628097561 4.99024390243903  L 13.9437084487805 2.30666577560976  Z M 19.8378601981495 1  L 15.8000758841667 1.00000028912262  C 15.7111378085428 1.65204424602001  15.2867399368936 2.38807764037966  14.7764803902439 2.72986286829268  L 12.4870386146341 4.28370454634148  L 18.7932201560975 2.00606870243905  C 19.2412872810771 1.8532060239055  19.6294662880946 1.4582604316559  19.8378601981495 1  Z M 9.57369900438005 1  L 0.146462629140046 1.00000022432238  C 0.34737933640082 1.46272933606315  0.734462304453302 1.86456556718576  1.17786829268289 2.02332351219513  L 9.57369900487799 4.99024390243903  L 9.57369900438005 1  Z " fill-rule="nonzero" fill="#999999" stroke="none" transform="matrix(1 0 0 1 0 15 )" />
  </g>
</svg>