<?xml version="1.0" encoding="utf-8"?>
<svg version="1.1" xmlns:xlink="http://www.w3.org/1999/xlink" width="20px" height="7px" xmlns="http://www.w3.org/2000/svg">
  <g transform="matrix(1 0 0 1 0 -13 )">
    <path d="M 15 2.33416774634145  L 14.9999999926517 1  L 10.4055628097561 0.999916394316642  L 10.4055628097561 6.99024390243903  L 13.9437084487805 4.30666577560976  C 14.518566302439 3.92070277073174  14.9844463609757 3.03616636097559  15 2.33416774634145  Z M 20 2.33416774634145  L 20 1  L 15.8172183024391 0.999928296843621  L 15.8172183024391 2.75736483902438  C 15.8172183024391 3.45936345365851  15.3513382439024 4.344808  14.7764803902439 4.72986286829268  L 12.4870386146341 6.28370454634148  L 18.7932201560975 4.00606870243905  C 19.4507195121952 3.78175607804877  19.9792617951219 3.03616636097559  20 2.33416774634145  Z M 9.57369900438005 1  L 0 1.00982964199494  L 0 2.33416774634145  C 0 3.03707449756098  0.528542282926878 3.7908375609756  1.17786829268289 4.02332351219513  L 9.57369900487799 6.99024390243903  L 9.57369900438005 1  Z " fill-rule="nonzero" fill="#999999" stroke="none" transform="matrix(1 0 0 1 0 13 )" />
  </g>
</svg>