<?xml version="1.0" encoding="utf-8"?>
<svg version="1.1" xmlns:xlink="http://www.w3.org/1999/xlink" width="20px" height="9px" xmlns="http://www.w3.org/2000/svg">
  <g transform="matrix(1 0 0 1 0 -11 )">
    <path d="M 15 4.33416774634145  L 14.9999999926517 1  L 10.4055628097561 1.00000048395316  L 10.4055628097561 8.99024390243903  L 13.9437084487805 6.30666577560976  C 14.518566302439 5.92070277073174  14.9844463609757 5.03616636097559  15 4.33416774634145  Z M 20 4.33416774634145  L 20 1  L 15.8172183024391 0.999876083591744  L 15.8172183024391 4.75736483902438  C 15.8172183024391 5.45936345365851  15.3513382439024 6.344808  14.7764803902439 6.72986286829268  L 12.4870386146341 8.28370454634148  L 18.7932201560975 6.00606870243905  C 19.4507195121952 5.78175607804877  19.9792617951219 5.03616636097559  20 4.33416774634145  Z M 9.57369900438005 1  L 0 1.00516428425794  L 0 4.33416774634145  C 0 5.03707449756098  0.528542282926878 5.7908375609756  1.17786829268289 6.02332351219513  L 9.57369900487799 8.99024390243903  L 9.57369900438005 1  Z " fill-rule="nonzero" fill="#999999" stroke="none" transform="matrix(1 0 0 1 0 11 )" />
  </g>
</svg>