<?xml version="1.0" encoding="utf-8"?>
<svg version="1.1" xmlns:xlink="http://www.w3.org/1999/xlink" width="20px" height="11px" xmlns="http://www.w3.org/2000/svg">
  <g transform="matrix(1 0 0 1 0 -9 )">
    <path d="M 15 6.33416774634145  L 14.9999999926517 1  L 10.4055628097561 1.00000543941206  L 10.4055628097561 10.990243902439  L 13.9437084487805 8.30666577560976  C 14.518566302439 7.92070277073174  14.9844463609757 7.03616636097559  15 6.33416774634145  Z M 20 6.33416774634145  L 20 1  L 15.8172183024391 0.999983836848401  L 15.8172183024391 6.75736483902438  C 15.8172183024391 7.45936345365851  15.3513382439024 8.344808  14.7764803902439 8.72986286829268  L 12.4870386146341 10.2837045463415  L 18.7932201560975 8.00606870243905  C 19.4507195121952 7.78175607804877  19.9792617951219 7.03616636097559  20 6.33416774634145  Z M 9.57369900438005 1  L 0 1.00109579836032  L 0 6.33416774634145  C 0 7.03707449756098  0.528542282926878 7.7908375609756  1.17786829268289 8.02332351219513  L 9.57369900487799 10.990243902439  L 9.57369900438005 1  Z " fill-rule="nonzero" fill="#999999" stroke="none" transform="matrix(1 0 0 1 0 9 )" />
  </g>
</svg>