<?xml version="1.0" encoding="utf-8"?>
<svg version="1.1" xmlns:xlink="http://www.w3.org/1999/xlink" width="20px" height="13px" xmlns="http://www.w3.org/2000/svg">
  <g transform="matrix(1 0 0 1 0 -7 )">
    <path d="M 15 8.33416774634145  L 14.9999999926517 1  L 10.4055628097561 0.999965324746427  L 10.4055628097561 12.990243902439  L 13.9437084487805 10.3066657756098  C 14.518566302439 9.92070277073174  14.9844463609757 9.03616636097559  15 8.33416774634145  Z M 20 8.33416774634145  L 20 1  L 15.8172183024391 1.00001800165194  L 15.8172183024391 8.75736483902438  C 15.8172183024391 9.45936345365851  15.3513382439024 10.344808  14.7764803902439 10.7298628682927  L 12.4870386146341 12.2837045463415  L 18.7932201560975 10.0060687024391  C 19.4507195121952 9.78175607804877  19.9792617951219 9.03616636097559  20 8.33416774634145  Z M 9.57369900438005 1  L 0 1.01664865246403  L 0 8.33416774634145  C 0 9.03707449756098  0.528542282926878 9.7908375609756  1.17786829268289 10.0233235121951  L 9.57369900487799 12.990243902439  L 9.57369900438005 1  Z " fill-rule="nonzero" fill="#999999" stroke="none" transform="matrix(1 0 0 1 0 7 )" />
  </g>
</svg>