<?xml version="1.0" encoding="utf-8"?>
<svg version="1.1" xmlns:xlink="http://www.w3.org/1999/xlink" width="20px" height="14px" xmlns="http://www.w3.org/2000/svg">
  <g transform="matrix(1 0 0 1 0 -6 )">
    <path d="M 15 9.33416939741407  L 14.9999999926517 0  L 10.4055628097561 0  L 10.4055628097561 13.9902439058914  L 13.9437084487805 11.3066667286853  C 14.518566302439 10.9207038603859  14.9844463609757 10.0361677636358  15 9.33416939741407  Z M 20 9.33416939741407  L 20 0  L 15.8172183024391 0  L 15.8172183024391 9.75736634034254  C 15.8172183024391 10.4593647065643  15.3513382439024 11.3448089395783  14.7764803902439 11.7298636716137  L 12.4870386146341 13.283704799813  L 18.7932201560975 11.0060697618852  C 19.4507195121952 10.7817572168712  19.9792617951219 10.0361677636358  20 9.33416939741407  Z M 9.57369900438005 0  L 0 0.00735198931840872  L 0 9.33416939741407  C 0 10.0370758998998  0.528542282926878 10.7908386965844  1.17786829268289 11.0233245655354  L 9.57369900487799 13.9902439058914  L 9.57369900438005 0  Z " fill-rule="nonzero" fill="#999999" stroke="none" transform="matrix(1 0 0 1 0 6 )" />
  </g>
</svg>