<?xml version="1.0" encoding="utf-8"?>
<svg version="1.1" xmlns:xlink="http://www.w3.org/1999/xlink" width="20px" height="17px" xmlns="http://www.w3.org/2000/svg">
  <g transform="matrix(1 0 0 1 0 -3 )">
    <path d="M 15 12.3341677463414  L 15 1  L 10.4055628097561 1.00021548086579  L 10.4055628097561 16.990243902439  L 13.9437084487805 14.3066657756098  C 14.518566302439 13.9207027707317  14.9844463609757 13.0361663609756  15 12.3341677463414  Z M 20 12.3341677463414  L 20 1  L 15.8172183024391 0.999734892267441  L 15.8172183024391 12.7573648390244  C 15.8172183024391 13.4593634536585  15.3513382439024 14.344808  14.7764803902439 14.7298628682927  L 12.4870386146341 16.2837045463415  L 18.7932201560975 14.0060687024391  C 19.4507195121952 13.7817560780488  19.9792617951219 13.0361663609756  20 12.3341677463414  Z M 9.57369900438005 1  L 0 1.0064408730949  L 0 12.3341677463414  C 0 13.037074497561  0.528542282926878 13.7908375609756  1.17786829268289 14.0233235121951  L 9.57369900487799 16.990243902439  L 9.57369900438005 1  Z " fill-rule="nonzero" fill="#999999" stroke="none" transform="matrix(1 0 0 1 0 3 )" />
  </g>
</svg>