<?xml version="1.0" encoding="utf-8"?>
<svg version="1.1" xmlns:xlink="http://www.w3.org/1999/xlink" width="20px" height="18px" xmlns="http://www.w3.org/2000/svg">
  <g transform="matrix(1 0 0 1 0 -2 )">
    <path d="M 15 13.334169115085  L 15 0  L 11.7997730270807 0  L 10.4055628097561 1.05782448226251  L 10.4055628097561 17.990243905301  L 13.9437084487805 15.3066665657119  C 14.518566302439 14.9207036740579  14.9844463609757 14.0361675237846  15 13.334169115085  Z M 20 13.334169115085  L 20 0  L 15.8172183024391 4.08850655732269E-05  L 15.8172183024391 13.7573660836211  C 15.8172183024391 14.4593644923207  15.3513382439024 15.3448087789129  14.7764803902439 15.729863534248  L 12.4870386146341 17.2837047564701  L 18.7932201560975 15.0060695807227  C 19.4507195121952 14.7817570221356  19.9792617951219 14.0361675237846  20 13.334169115085  Z M 6.58280306818358 0  L 0 0.00390080133541547  L 0 13.334169115085  C 0 14.0370756601036  0.528542282926878 14.7908385023983  1.17786829268289 15.023324385417  L 9.57369900487799 17.990243905301  L 9.57369900487799 1.05691634594353  L 6.58280306818358 0  Z " fill-rule="nonzero" fill="#999999" stroke="none" transform="matrix(1 0 0 1 0 2 )" />
  </g>
</svg>