<?xml version="1.0" encoding="utf-8"?>
<svg version="1.1" xmlns:xlink="http://www.w3.org/1999/xlink" width="37px" height="15px" xmlns="http://www.w3.org/2000/svg">
  <g transform="matrix(1 0 0 1 -286 -54 )">
    <path d="M 8.35069444444446 10.2600524475525  L 8.17550505050505 14.7344842657343  L 0 7.04763986013987  L 8.70107323232324 0.106534090909093  L 9.05145202020202 4.00732080419581  C 9.05145202020202 4.00732080419581  17.2853535353535 4.00732080419581  23.3585858585859 5.61352709790211  C 30.541351010101 7.50655594405595  36.4977904040404 9.97322989510491  36.4977904040404 10.1453234265734  C 36.4977904040404 10.2600524475525  29.5486111111111 8.48175262237763  21.1395202020202 8.48175262237763  C 14.4239267676768 8.48175262237763  8.35069444444446 10.2600524475525  8.35069444444446 10.2600524475525  Z M 8.75946969696969 7.16236888111888  C 8.81786616161617 5.44143356643357  7.47474747474749 4.06468531468531  5.78125 4.06468531468531  C 4.08775252525251 4.12204982517483  2.68623737373738 5.49879807692307  2.62784090909091 7.2197333916084  C 2.56944444444446 8.94066870629371  3.91256313131314 10.2600524475525  5.60606060606059 10.2600524475525  C 7.29955808080808 10.2600524475525  8.70107323232324 8.82593968531469  8.75946969696969 7.16236888111888  Z " fill-rule="nonzero" fill="#d7d7d7" stroke="none" transform="matrix(1 0 0 1 286 54 )" />
  </g>
</svg>