<?xml version="1.0" encoding="utf-8"?>
<svg version="1.1" xmlns:xlink="http://www.w3.org/1999/xlink" width="40px" height="55px" xmlns="http://www.w3.org/2000/svg">
  <g transform="matrix(1 0 0 1 -288 -59 )">
    <path d="M 20.9876336898396 53.4001358695652  C 20.4027406417112 52.9840353260869  20.2272727272727 49.9524456521739  18.6480614973262 49.1202445652174  C 17.0688502673797 48.2880434782609  16.0160427807486 48.4069293478261  12.9745989304813 47.0397418478261  C 9.69919786096256 45.6131114130435  6.014371657754 43.5920516304348  5.02005347593584 42.4626358695652  C 4.08422459893049 41.3926630434783  3.26537433155079 39.1932744565217  2.32954545454547 37.4099864130435  C 1.33522727272728 35.5078125  0.340909090909093 34.0217391304348  0.340909090909093 33.1300951086956  C 0.340909090909093 32.1790081521739  1.10127005347593 30.9307065217391  1.45220588235293 29.1474184782609  C 1.80314171122996 27.6613451086956  1.45220588235293 25.9969429347826  2.09558823529412 25.1647418478261  C 2.85594919786095 24.1542119565217  6.71624331550802 25.9375  6.65775401069519 31.2279211956522  C 7.8860294117647 32.7734375  8.47092245989305 34.2595108695652  8.47092245989305 34.2595108695652  L 9.23128342245988 34.0217391304348  C 9.23128342245988 34.0217391304348  9.17279411764707 23.7975543478261  7.94451871657753 20.2309782608696  C 7.41811497326202 18.6260190217391  6.13135026737967 15.1188858695652  4.37667112299465 11.195652173913  C 2.56350267379679 7.09408967391303  1.51069518716577 1.80366847826085  2.91443850267379 0.852581521739125  C 5.78041443850267 -1.10903532608697  6.07286096256684 2.33865489130434  7.65207219251337 5.4296875  C 8.35394385026737 6.796875  9.87466577540107 8.04517663043475  10.5180481283423 9.29347826086956  C 11.5708556149733 11.4334239130434  12.5651737967914 13.0383831521739  12.6236631016043 13.0383831521739  C 12.7991310160428 12.9194972826087  12.3897058823529 10.3040081521739  14.6707887700535 8.81793478260869  C 15.899064171123 8.04517663043478  17.8877005347593 9.17459239130434  18.8820187165775 9.82846467391303  C 21.5725267379679 11.5523097826087  21.6310160427807 12.5033967391304  21.5725267379679 12.3250679347826  C 21.5725267379679 12.3250679347826  23.2687165775401 11.6711956521739  24.6139705882353 12.3845108695652  C 26.9535427807487 13.5733695652174  27.8308823529412 16.1888586956522  27.7139037433155 16.1888586956522  C 27.7139037433155 16.1888586956522  28.591243315508 15.7727581521739  29.8780080213904 16.1294157608696  C 32.6854946524064 16.9021739130434  33.1534090909091 19.9932065217391  33.9722593582888 21.2415081521739  C 35.5514705882353 23.7381114130435  38.5344251336898 34.9728260869565  38.2419786096257 39.0743885869565  C 38.0665106951872 41.1548913043478  40.4060828877005 43.4137228260869  39.177807486631 46.9802989130435  C 36.7797459893048 54.0540081521739  24.029077540107 55.7778532608696  20.9876336898396 53.4001358695652  Z " fill-rule="nonzero" fill="#d7d7d7" stroke="none" transform="matrix(1 0 0 1 288 59 )" />
  </g>
</svg>