<?xml version="1.0" encoding="utf-8"?>
<svg version="1.1" xmlns:xlink="http://www.w3.org/1999/xlink" width="36px" height="32px" xmlns="http://www.w3.org/2000/svg">
  <g transform="matrix(1 0 0 1 -12 -24 )">
    <path d="M 0.160604508196721 24.769696969697  C 0.214395491803279 28.705303030303  3.52638319672131 31.925  7.57223360655738 31.8757575757576  C 11.6142418032787 31.9212121212121  14.9339139344262 28.705303030303  14.983862704918 24.769696969697  C 15.0376536885246 20.8340909090909  11.6641905737705 17.6181818181818  7.57223360655738 17.6674242424242  C 3.52638319672131 17.6143939393939  0.210553278688525 20.8378787878788  0.160604508196721 24.769696969697  Z M 21.1045081967213 24.769696969697  C 21.1582991803279 28.705303030303  24.4741290983607 31.925  28.4700307377049 31.8757575757576  C 32.561987704918 31.9212121212121  35.8816598360656 28.705303030303  35.9354508196721 24.769696969697  C 35.9853995901639 20.8340909090909  32.6157786885246 17.6181818181818  28.5199795081967 17.6674242424242  C 26.5796618852459 17.6371212121212  24.7085040983607 18.3681818181818  23.3176229508197 19.7015151515152  C 21.9267418032787 21.0348484848485  21.1314036885246 22.8568181818182  21.1045081967213 24.769696969697  Z M 23.3060963114754 0.186363636363636  L 23.2523053278689 0.186363636363636  C 21.1813524590164 0.239393939393939  19.5714651639344 1.83030303030303  19.5714651639344 3.81893939393939  C 19.5753073770492 5.80757575757576  21.2313012295082 7.44772727272727  23.3060963114754 7.39469696969697  C 25.3808913934426 7.34166666666667  26.9869364754098 5.75454545454545  26.9869364754098 3.76590909090909  C 26.9869364754098 1.77348484848485  25.3309426229508 0.186363636363636  23.3060963114754 0.186363636363636  Z M 19.3563012295082 17.1030303030303  L 15.2067110655738 13.1143939393939  L 17.4889856557377 10.9174242424242  L 20.3399077868852 13.6295454545455  C 20.7164446721311 13.9893939393939  21.2159323770492 14.1901515151515  21.7423155737705 14.3515151515152  L 27.6516393442623 14.3515151515152  C 28.1741803278689 14.1901515151515  28.6736680327869 13.9856060606061  29.046362704918 13.6219696969697  C 29.4152151639344 13.2583333333333  29.6226946721311 12.7621212121212  29.6226946721311 12.2469696969697  C 29.6226946721311 11.2204545454545  28.7428278688525 10.3568181818182  27.6516393442623 10.4727272727273  L 22.5184426229508 10.4727272727273  L 18.8875512295082 6.83030303030303  C 18.1114241803279 6.08030303030303  16.8665471311475 6.08030303030303  16.0904200819672 6.83030303030303  L 11.0071721311475 11.7393939393939  C 10.2464139344262 12.5045454545455  10.2464139344262 13.7318181818182  11.0071721311475 14.4969696969697  L 16.1311475409836 19.2507575757576  L 16.1311475409836 25.7962121212121  C 16.0366290983607 26.8681818181818  16.9164959016393 27.7393939393939  17.9538934426229 27.7924242424242  C 18.4764344262295 27.7924242424242  18.9797643442623 27.5878787878788  19.3486168032787 27.2242424242424  C 19.7174692622951 26.8606060606061  19.9249487704918 26.3643939393939  20.0655737704918 25.8492424242424  L 20.0655737704918 18.4856060606061  C 19.9249487704918 17.9704545454545  19.7213114754098 17.4742424242424  19.3563012295082 17.1030303030303  Z M 2.95389344262295 24.769696969697  C 2.90010245901639 22.2659090909091  5.08247950819672 20.269696969697  7.62218237704918 20.3227272727273  C 10.1618852459016 20.269696969697  12.2328381147541 22.2659090909091  12.2866290983607 24.769696969697  C 12.3404200819672 27.2772727272727  10.1618852459016 29.2166666666667  7.62218237704918 29.2166666666667  C 5.08247950819672 29.269696969697  3.00768442622951 27.2772727272727  2.95389344262295 24.769696969697  Z M 23.8017418032787 24.769696969697  C 23.8555327868852 22.2659090909091  25.9303278688525 20.269696969697  28.4700307377049 20.3227272727273  C 31.0596823770492 20.269696969697  33.1344774590164 22.2659090909091  33.1844262295082 24.769696969697  C 33.1344774590164 27.2242424242424  31.0097336065574 29.2166666666667  28.4700307377049 29.2166666666667  C 25.9303278688525 29.269696969697  23.8555327868852 27.2734848484848  23.8017418032787 24.769696969697  Z " fill-rule="nonzero" fill="#6baea7" stroke="none" transform="matrix(1 0 0 1 12 24 )" />
  </g>
</svg>