<?xml version="1.0" encoding="utf-8"?>
<svg version="1.1" xmlns:xlink="http://www.w3.org/1999/xlink" width="80px" height="40px" xmlns="http://www.w3.org/2000/svg">
  <g transform="matrix(1 0 0 1 -70 0 )">
    <path d="M 72 20  A 18 18 0 0 1 90 2 L 130 2  A 18 18 0 0 1 148 20 A 18 18 0 0 1 130 38 L 90 38  A 18 18 0 0 1 72 20 Z " fill-rule="nonzero" fill="#ffffff" stroke="none" fill-opacity="0" />
    <path d="M 71 20  A 19 19 0 0 1 90 1 L 130 1  A 19 19 0 0 1 149 20 A 19 19 0 0 1 130 39 L 90 39  A 19 19 0 0 1 71 20 Z " stroke-width="2" stroke="#ffffff" fill="none" stroke-opacity="0.2" />
  </g>
</svg>