<?xml version="1.0" encoding="utf-8"?>
<svg version="1.1" xmlns:xlink="http://www.w3.org/1999/xlink" width="30px" height="30px" xmlns="http://www.w3.org/2000/svg">
  <g transform="matrix(1 0 0 1 -125 -255 )">
    <path d="M 30 19  C 30 20.375  28.875 21.5  27.5 21  L 2.5 21  C 1.125 21.5  0 20.375  0 19  L 0 2.5  C 0 1.125  1.125 0  2.5 0  L 27.5 0  C 28.875 0  30 1.125  30 2.5  L 30 19  Z M 28 19  L 28 2.5  C 28.5 1.94999999999999  28.05 1.5  27.5 2  L 2.5 2  C 1.94999999999999 1.5  1.5 1.94999999999999  1.5 2.5  L 1.5 4.5  L 4.5 4.5  L 4.5 6  L 1.5 6  L 1.5 7.5  L 4.5 7.5  L 4.5 9  L 1.5 9  L 1.5 10.5  L 4.5 10.5  L 4.5 12  L 1.5 12  L 1.5 19  C 1.5 19.55  1.94999999999999 20  2.5 20  L 27.5 20  C 28.05 20  28.5 19.55  28 19  Z M 30 27.5  C 30 28.875  28.875 30  27.5 30  L 6 30  L 1.5 27.5  L 1.5 27.25  L 0.5 27.25  L 0 25.75  L 1.5 25.75  L 1.5 25.5  L 6 23  L 27.5 23  C 28.875 23  30 24.125  30 25.5  L 30 27.5  Z M 27 17  C 27 17.825  26.325 18.5  25.5 18  L 7.5 18  C 6.67500000000001 18.5  6 17.825  6 17  L 6 4.5  C 6 3.67500000000001  6.67500000000001 3  7.5 3  L 25.5 3  C 26.325 3  27 3.67500000000001  27 4.5  L 27 17  Z M 28.5 27.5  L 28.5 25.5  C 28.5 24.95  28.05 24.5  27.5 24  L 7 24  C 6.44999999999999 24.5  6 24.95  6 25.5  L 6 27.5  C 6 28.05  6.44999999999999 28.5  7 28  L 21 28  L 21 26  L 22.5 26  L 22.5 28.5  L 24 28.5  L 24 26  L 25.5 26  L 25.5 28.5  L 27.5 28.5  C 28.05 28.5  28.5 28.05  28.5 27.5  Z M 26 17  L 26 4.5  C 26 4.22499999999999  25.775 4  25.5 4  L 7.5 4  C 7.22500000000002 4  7 4.22499999999999  7 4.5  L 7 17  C 7 17.275  7.22500000000002 17.5  7.5 17  L 25.5 17  C 25.775 17.5  26 17.275  26 17  Z " fill-rule="nonzero" fill="#ffffff" stroke="none" fill-opacity="0.498039215686275" transform="matrix(1 0 0 1 125 255 )" />
  </g>
</svg>