<?xml version="1.0" encoding="utf-8"?>
<svg version="1.1" xmlns:xlink="http://www.w3.org/1999/xlink" width="30px" height="29px" xmlns="http://www.w3.org/2000/svg">
  <g transform="matrix(1 0 0 1 -125 -256 )">
    <path d="M 0.993453814667577 19.7007410636443  L 5.83659657470483 14.9633827375763  L 6.90718602692356 16.016129032258  L 4.61306577216912 18.2970793374019  L 8.94640403114979 22.5581952920663  L 7.87581457893105 23.610941586748  L 3.54247631995033 19.3498256320837  L 2.08953349193918 20.7785527462947  C 1.68168989109394 21.1795989537925  1.68168989109394 21.8062336530078  2.08953349193918 22.2072798605057  L 7.13659805239901 27.1451612903226  C 7.54444165324431 27.5462074978204  8.18169727956494 27.5462074978204  8.58954088041023 27.1451612903226  L 13.4326836404474 22.382737576286  L 14.5032730926662 23.4354838709677  L 9.66013033262896 28.1979075850044  C 8.66601155556872 29.1754577157803  7.06012737724053 29.1754577157803  6.06600860018028 28.1979075850044  L 0.993453814667577 23.2600261551875  C -0.000664962392670917 22.2824760244115  -0.000664962392670917 20.6782911944202  0.993453814667577 19.7007410636443  Z M 28.7523088971968 21.1545335658239  C 29.7464276742571 22.1571490845685  29.7464276742571 23.7362685265911  28.7523088971968 24.713818657367  L 25.1581871647481 28.2480383609416  C 24.1640683876878 29.2255884917175  22.5581842093597 29.2255884917175  21.5640654322995 28.2480383609416  L 2.72678911825987 9.74978204010461  L 1.14639516498455 2.90693112467306  L 1.32482674035433 2.73147340889278  L 0.611100438875151 2.02964254577159  L 1.70718011614675 0.25  L 2.77776956836554 1.30274629468175  L 2.95620114373532 1.12728857890147  L 9.91503258315723 2.65627724498694  L 4.51110487195777 7.99520488230166  C 4.10326127111254 8.39625108979948  4.10326127111254 9.02288578901482  4.51110487195777 9.42393199651264  L 17.9189632497451 22.6083260680035  L 21.5385752072466 19.0490409764603  L 22.6091646594654 20.1017872711421  L 19.0150429270167 23.6610723626853  L 20.6719075554505 25.2903225806452  L 20.0856323792354 24.713818657367  L 23.7052443367369 21.1795989537925  L 24.7758337889557 22.2323452484743  L 21.181712056507 25.7665649520488  L 22.6346548845182 27.1952920662598  C 23.0424984853634 27.5963382737576  23.6797541116841 27.5963382737576  24.0875977125294 27.1952920662598  L 27.681719444978 23.6610723626853  C 28.0895630458233 23.2600261551875  28.0895630458233 22.6333914559721  27.681719444978 22.2323452484743  L 9.58365965747048 4.43591979075848  C 9.17581605662524 4.03487358326066  8.53856043030456 4.03487358326066  8.13071682945932 4.43591979075848  L 9.94052280821009 2.65627724498694  L 28.7523088971968 21.1545335658239  Z M 28.7013284470912 9.47406277244988  L 23.8581856870539 14.2364864864865  L 22.7875962348352 13.1837401918047  L 27.6307389948724 8.42131647776807  C 28.0385825957177 8.02027027027026  28.0385825957177 7.39363557105492  27.6307389948724 6.9925893635571  L 22.5581842093597 2.05470793374019  C 22.1503406085145 1.65366172624238  21.5130849821938 1.65366172624238  21.1052413813486 2.05470793374019  L 19.6522985533373 3.48343504795116  L 23.9856368123181 7.74455100261554  L 22.9405375851521 8.7722319093287  L 18.6071993261714 4.51111595466432  L 16.2875888463641 6.79206625980817  L 15.2169993941454 5.73931996512641  L 20.0601421541826 0.976896251089784  C 21.0287707061901 -0.000653879686126402  22.660145109571 -0.000653879686126402  23.6542638866313 0.976896251089784  L 28.7013284470912 5.93984306887535  C 29.6954472241514 6.91739319965126  29.6954472241514 8.49651264167392  28.7013284470912 9.47406277244988  Z " fill-rule="nonzero" fill="#ffffff" stroke="none" fill-opacity="0.498039215686275" transform="matrix(1 0 0 1 125 256 )" />
  </g>
</svg>