<?xml version="1.0" encoding="utf-8"?>
<svg version="1.1" xmlns:xlink="http://www.w3.org/1999/xlink" width="29px" height="28px" xmlns="http://www.w3.org/2000/svg">
  <g transform="matrix(1 0 0 1 -126 -256 )">
    <path d="M 29 8.5  C 29 10.425  28.15 12.175  26.825 13.35  C 26.95 14.05  27 14.775  27 15.5  C 27 16.175  26.95 16.825  26.85 17.475  C 27.575 18.55  28 19.85  28 21.25  C 28 24.975  24.975 28  21.25 28  L 7.75 28  C 4.02499999999998 28  1 24.975  1 21.25  C 1 19.85  1.42500000000001 18.55  2.14999999999998 17.475  C 2.05000000000001 16.825  2 16.175  2 15.5  C 2 14.775  2.07499999999999 14.05  2.17500000000001 13.35  C 0.850000000000023 12.175  0 10.425  0 8.5  L 0 0  L 1.5 0  C 4.67500000000001 0  7.44999999999999 1.75  8.89999999999998 4.32499999999999  C 10.575 3.47500000000002  12.475 3  14.5 3  C 16.525 3  18.425 3.47500000000002  20.1 4.32499999999999  C 21.55 1.75  24.325 0  27.5 0  L 29 0  L 29 8.5  Z M 25.5 15.5  C 25.5 9.42500000000001  20.575 4.5  14.5 4.5  C 8.42500000000001 4.5  3.5 9.42500000000001  3.5 15.5  C 3.5 16.3  3.60000000000002 17.1  3.75 17.85  C 2.97500000000002 18.775  2.5 19.95  2.5 21.25  C 2.5 24.15  4.85000000000002 26.5  7.75 26  L 21.25 26  C 24.15 26.5  26.5 24.15  26.5 21.25  C 26.5 19.95  26.025 18.775  25.25 17.85  C 25.425 17.1  25.5 16.3  25.5 15.5  Z M 27.5 8.5  L 27.5 1.5  C 24.875 1.5  22.6 2.94999999999999  21.4 5.07499999999999  C 23.725 6.625  25.5 8.92500000000001  26.4 11.65  C 27.1 10.8  27.5 9.69999999999999  27.5 8.5  Z M 7.60000000000002 5.07499999999999  C 6.39999999999998 2.94999999999999  4.125 1.5  1.5 1.5  L 1.5 8.5  C 1.5 9.69999999999999  1.92500000000001 10.775  2.60000000000002 11.65  C 3.47500000000002 8.94999999999999  5.25 6.625  7.60000000000002 5.07499999999999  Z M 11.9 14.975  C 12 15.375  11.775 15.775  11.375 15.9  L 7.02499999999998 17.075  C 6.625 17.175  6.22500000000002 16.95  6.10000000000002 16.55  C 6 16.15  6.22500000000002 15.75  6.625 15.625  L 9.125 14.95  L 6.67500000000001 13.525  C 6.32499999999999 13.325  6.19999999999999 12.85  6.39999999999998 12.5  C 6.60000000000002 12.15  7.07499999999999 12.025  7.42500000000001 12.225  L 11.225 14.425  C 11.525 14.45  11.8 14.65  11.9 14.975  Z M 15.5 22.5  C 15.5 23.05  15.05 23.5  14.5 23.5  C 13.95 23.5  13.5 23.05  13.5 22.5  L 12.5 19  C 12.5 18.175  13.175 17.5  14 17.5  L 15 17.5  C 15.825 17.5  16.5 18.175  16.5 19  L 15.5 22.5  Z M 22.25 14.5  C 22.675 14.5  23 14.825  23 15.25  C 23 15.675  22.675 16  22.25 16  L 17.75 16  C 17.325 16  17 15.675  17 15.25  C 17 14.825  17.325 14.5  17.75 14.5  L 22.25 14.5  Z " fill-rule="nonzero" fill="#ffffff" stroke="none" fill-opacity="0.498039215686275" transform="matrix(1 0 0 1 126 256 )" />
  </g>
</svg>