<?xml version="1.0" encoding="utf-8"?>
<svg version="1.1" xmlns:xlink="http://www.w3.org/1999/xlink" width="30px" height="30px" xmlns="http://www.w3.org/2000/svg">
  <g transform="matrix(1 0 0 1 -125 -255 )">
    <path d="M 18 27.5  C 18 28.875  16.875 30  15.5 30  L 2.5 30  C 1.125 30  0 28.875  0 27.5  L 0 2.5  C 0 1.125  1.125 0  2.5 0  L 15.5 0  C 16.875 0  18 1.125  18 2.5  L 18 27.5  Z M 30 15  L 19 15  L 19 0  L 30 0  L 30 15  Z M 16 22  L 16 2.5  C 16.5 1.94999999999999  16.05 1.5  15.5 2  L 2.5 2  C 1.94999999999999 1.5  1.5 1.94999999999999  2 2.5  L 2 22  L 16 22  Z M 16.5 27.5  L 16.5 24  L 1.5 24  L 1.5 27.5  C 1.5 28.05  1.94999999999999 28.5  2.5 28  L 15.5 28  C 16.05 28.5  16.5 28.05  16.5 27.5  Z M 28 13.5  L 28 1.5  L 21 1.5  L 21 13.5  L 28 13.5  Z M 24 22.5  L 24 16.5  L 25.5 16.5  L 25.5 22.5  L 25.5 24  L 24 24  L 19.5 24  L 19.5 22.5  L 24 22.5  Z M 12 7  L 15 7  L 12.5 12  L 15 17  L 12 17  L 9.5 12  L 12 7  Z M 22.65 8.42500000000001  C 22.375 8.15000000000001  22.375 7.75  22.625 7.5  C 22.875 7.25  23.275 7.25  23.5 7.5  L 24.75 8.75  L 25.975 7.52500000000001  C 26.225 7.27500000000001  26.625 7.27500000000001  26.85 7.52500000000001  C 27.1 7.77500000000001  27.1 8.17500000000001  26.85 8.40000000000001  L 25.625 9.625  L 26.85 10.85  C 27.1 11.1  27.1 11.5  26.85 11.725  C 26.6 11.975  26.2 11.975  25.975 11.725  L 24.75 10.5  L 23.525 11.75  C 23.275 12  22.875 12  22.65 11.75  C 22.4 11.5  22.4 11.1  22.65 10.875  L 23.875 9.65000000000001  L 22.65 8.42500000000001  Z M 11.75 26.25  C 11.75 26.675  11.425 27  11 27  L 7 27  C 6.57499999999999 27  6.25 26.675  6.25 26.25  C 6.25 25.825  6.57499999999999 25.5  7 25.5  L 11 25.5  C 11.425 25.5  11.75 25.825  11.75 26.25  Z M 3 17  L 7.25 8.5  L 6.5 7  L 8 7  L 9.5 7  L 11 7  L 6 17  L 3 17  Z " fill-rule="nonzero" fill="#ffffff" stroke="none" fill-opacity="0.498039215686275" transform="matrix(1 0 0 1 125 255 )" />
  </g>
</svg>