<?xml version="1.0" encoding="utf-8"?>
<svg version="1.1" xmlns:xlink="http://www.w3.org/1999/xlink" width="160px" height="160px" xmlns="http://www.w3.org/2000/svg">
  <g transform="matrix(1 0 0 1 20 60 )">
    <path d="M 0.0159999999999854 80  C 0.0159999999999854 124.14933328125  35.85066671875 159.984  80 159.984  C 124.14933328125 159.984  159.984 124.14933328125  159.984 80  C 159.984 35.85066671875  124.14933328125 0.0159999999999854  80 0.0159999999999854  C 35.85066671875 0.0159999999999854  0.0159999999999854 35.85066671875  0.0159999999999854 80  Z M 15.90933328125 80  C 15.90933328125 44.592  44.58666671875 15.90933328125  80 15.90933328125  C 115.408 15.90933328125  144.09066671875 44.592  144.09066671875 80  C 144.09066671875 115.408  115.408 144.09066671875  80 144.09066671875  C 44.592 144.09066671875  15.90933328125 115.41333328125  15.90933328125 80  Z M 63 84  L 34.98666671875 84  L 34.98666671875 85.75466671875  L 36 85.76  L 36 120  L 75 120  L 75 109  L 48 109  L 48 96  L 75 96  L 75 62  L 48 62  L 48 50  L 75 50  L 75 38  L 36 38  L 36 74  L 63 74  L 63 84  Z M 125.008 85.75466671875  L 125.008 84  L 97 84  L 97 74  L 124 74  L 124 38  L 85 38  L 85 50  L 112 50  L 112 62  L 85 62  L 85 96  L 112 96  L 112 109  L 85 109  L 85 120  L 124 120  L 124 85.76  L 125.008 85.75466671875  Z " fill-rule="nonzero" fill="#f15d37" stroke="none" fill-opacity="0.6" transform="matrix(1 0 0 1 -20 -60 )" />
  </g>
</svg>