<?xml version="1.0" encoding="utf-8"?>
<svg version="1.1" xmlns:xlink="http://www.w3.org/1999/xlink" width="23px" height="11px" xmlns="http://www.w3.org/2000/svg">
  <g transform="matrix(1 0 0 1 -323 -16 )">
    <path d="M 21 3  L 21 8  C 21 9.67999999999995  19.6800000000001 11  18 11  L 3 11  C 1.31999999999994 11  0 9.67999999999995  0 8  L 0 3  C 0 1.32000000000005  1.31999999999994 0  3 0  L 18 0  C 19.6800000000001 0  21 1.32000000000005  21 3  Z M 22.0000000674577 4.028886025514  C 22.5766131607988 4.16456591673671  23 4.76300147558993  23 5.5  C 23 6.23699852441007  22.5766131607988 6.83543408326329  22 6.97111391486351  L 22.0000000674577 4.028886025514  Z M 3 1  C 1.88000000000011 1  1 1.88  1 3  L 1 8  C 1 9.12  1.88000000000011 10  3 10  L 18 10  C 19.1199999999999 10  20 9.12  20 8  L 20 3  C 20 1.88  19.1199999999999 1  18 1  L 3 1  Z " fill-rule="nonzero" fill="#999999" stroke="none" transform="matrix(1 0 0 1 323 16 )" />
  </g>
</svg>