<?xml version="1.0" encoding="utf-8"?>
<svg version="1.1" xmlns:xlink="http://www.w3.org/1999/xlink" width="16px" height="11px" xmlns="http://www.w3.org/2000/svg">
  <g transform="matrix(1 0 0 1 -302 -16 )">
    <path d="M 15.5819729724108 3.41802702758912  L 14.1574500369177 4.84254996308641  C 12.7002023063335 3.09571832646293  10.4995172885936 2  8 2  C 5.50048271140645 2  3.29979769366651 3.09571832646293  1.84254991783541 4.8425499178353  L 0.418027018652992 3.41802705128089  C 2.23931773909317 1.31327605531294  4.94057577109493 0  8 0  C 11.0594242289051 0  13.7606822609068 1.31327605531294  15.5819729724108 3.41802702758912  Z M 12.7298865376649 6.27011346233496  L 11.2946273630243 7.70537265424718  C 10.5783409739042 6.66828864727654  9.38030075703523 6  8 6  C 6.61969924296477 6  5.42165902609577 6.66828864727654  4.70537269311239 7.70537269311228  L 3.27011339715182 6.27011337144074  C 4.36051790831152 4.87983863913007  6.06028095791089 4  8 4  C 9.93971904208911 4  11.6394820916885 4.87983863913007  12.7298865376649 6.27011346233496  Z M 8 8  C 8.82358491364676 8  9.51739455114807 8.47584267919979  9.82695043259287 9.17304956740702  L 8 11  L 6.17304956272847 9.17304956236683  C 6.48260544885193 8.47584267919979  7.17641508635324 8  8 8  Z " fill-rule="nonzero" fill="#ffffff" stroke="none" transform="matrix(1 0 0 1 302 16 )" />
  </g>
</svg>