<?xml version="1.0" encoding="utf-8"?>
<svg version="1.1" xmlns:xlink="http://www.w3.org/1999/xlink" width="10px" height="16px" xmlns="http://www.w3.org/2000/svg">
  <g transform="matrix(1 0 0 1 -21 -16 )">
    <path d="M 9.12022352864587 15.5374949609375  C 8.93772118489586 15.7212404296875  8.69769968098961 15.8124916015625  8.45771177083333 15.8124916015625  C 8.21772386067704 15.8124916015625  7.97770235677081 15.7212404296875  7.79459524739586 15.5381333203125  L 0.920216809895834 8.66375486328127  C 0.553968997395799 8.29814541015625  0.553968997395799 7.70437439453124  0.920216809895834 7.33812658203124  L 7.79459526692708 0.463109804687491  C 8.1608430794271 0.0968619921874847  8.75397573567706 0.0968619921874847  9.12022354817708 0.463109804687491  C 9.48647136067711 0.828719257812509  9.48647136067711 1.42249027343752  9.12022354817708 1.7887380859375  L 2.90896161458332 8.00060476562501  L 9.12022352864587 14.2118666796875  C 9.4864713411458 14.5781144921875  9.4864713411458 15.1712471484375  9.12022352864587 15.5374949609375  Z " fill-rule="nonzero" fill="#ffffff" stroke="none" transform="matrix(1 0 0 1 21 16 )" />
  </g>
</svg>