<?xml version="1.0" encoding="utf-8"?>
<svg version="1.1" xmlns:xlink="http://www.w3.org/1999/xlink" width="20px" height="17px" xmlns="http://www.w3.org/2000/svg">
  <g transform="matrix(1 0 0 1 -10 -12 )">
    <path d="M 17.8322095435685 3.145  C 18.9865663900415 3.14925  19.9234958506224 3.99245  20 5.032  L 20 15.1181  C 19.9170124481328 16.15765  18.9865663900415 17  17.8322095435685 17  L 2.09776970954357 17  C 0.944242738589211 17  0.00648340248962656 16.1568  0 15.11725  L 0 5.032  C 0.00648340248962656 3.99245  0.94341286307054 3.14925  2.09776970954357 3.145  L 17.8322095435685 3.145  Z M 2.05295643153527 15.64  L 17.8753630705394 15.64  C 18.3666493775934 15.6808  18.764989626556 15.33485  18.7551867219917 14.90815  L 18.7551867219917 5.1204  C 18.764989626556 4.6937  18.3666493775934 4.3469  17.8753630705394 4.42  L 2.05295643153527 4.42  C 1.56167012448133 4.3469  1.16332987551867 4.6937  1.16182572614108 5.1204  L 1.16182572614108 14.90815  C 1.16332987551867 15.33485  1.56167012448133 15.6808  2.05295643153527 15.64  Z M 5.6280601659751 0  L 14.3019190871369 0  C 14.65627593361 0  14.9442427385892 0.285600000000001  14.9442427385892 0.6375  C 14.9442427385892 0.989399999999999  14.65627593361 1.275  14.3019190871369 1.275  L 5.6280601659751 1.275  C 5.62471520421433 1.27505437891042  5.62136987381083 1.27508156964976  5.61802449074123 1.27508156964976  C 5.2726307475606 1.27508156964976  4.99113228808123 0.991226370121429  4.98573651452282 0.6375  C 4.98573651452282 0.285600000000001  5.2728734439834 0  5.6280601659751 0  Z M 9.96498962655602 5.95  C 12.2566275926589 5.95  14.114367219917 7.85278981321913  14.114367219917 10.2  C 14.114367219917 12.5472101867809  12.2566275926589 14.45  9.96498962655602 14.45  C 7.67335166045314 14.45  5.81561203319502 12.5472101867809  5.81561203319502 10.2  C 5.81561203319502 7.85278981321913  7.67335166045314 5.95  9.96498962655602 5.95  Z M 9.96415963967456 7.03290011412458  C 8.25688935492792 7.03290011412458  6.87287333262062 8.45047852497284  6.87287333262062 10.1991501141246  C 6.87333151169953 11.947489748434  8.25721338896145 13.3654001141246  9.96415963967456 13.3654001141246  C 11.6711057418641 13.3649306982262  13.0554459467285 11.9474897223095  13.0554459467285 10.1991501141246  C 13.0554459467285 8.45047852497284  11.6714299244212 7.03290011412458  9.96415963967456 7.03290011412458  Z " fill-rule="nonzero" fill="#666666" stroke="none" transform="matrix(1 0 0 1 10 12 )" />
  </g>
</svg>