<?xml version="1.0" encoding="utf-8"?>
<svg version="1.1" xmlns:xlink="http://www.w3.org/1999/xlink" width="18px" height="18px" xmlns="http://www.w3.org/2000/svg">
  <g transform="matrix(1 0 0 1 -21 -21 )">
    <path d="M 17.28 3.14285714285717  L 11.52 8.85714285714283  L 17.4 14.4571428571429  C 18.12 15.1428571428571  18.12 16.1714285714286  17.4 16.8571428571428  C 16.6799999999999 17.5428571428571  15.6 17.5428571428571  14.88 16.8571428571428  L 9 11.2571428571429  L 3.12 16.8571428571428  C 2.39999999999998 17.5428571428571  1.32000000000005 17.5428571428571  0.599999999999966 16.8571428571428  C -0.120000000000005 16.1714285714286  -0.120000000000005 15.1428571428571  0.599999999999966 14.4571428571429  L 6.48000000000002 8.85714285714283  L 0.479999999999961 3.25714285714287  C -0.120000000000005 2.57142857142856  -0.120000000000005 1.42857142857144  0.479999999999961 0.742857142857133  C 1.08000000000004 0.0571428571428214  2.27999999999997 0.0571428571428214  3.00000000000006 0.742857142857133  L 8.88 6.34285714285716  L 14.76 0.742857142857133  C 15.48 0.0571428571428214  16.56 0.0571428571428214  17.28 0.742857142857133  C 18 1.42857142857144  18 2.45714285714286  17.28 3.14285714285717  Z " fill-rule="nonzero" fill="#ffffff" stroke="none" fill-opacity="0.6" transform="matrix(1 0 0 1 21 21 )" />
  </g>
</svg>