<?xml version="1.0" encoding="utf-8"?>
<svg version="1.1" xmlns:xlink="http://www.w3.org/1999/xlink" width="145px" height="145px" xmlns="http://www.w3.org/2000/svg">
  <g transform="matrix(1 0 0 1 -8 -8 )">
    <path d="M 60 105  L 55 105  L 55 110  L 50 110  L 50 95  L 45 95  L 45 105  L 40 105  L 40 125  L 50 125  L 50 130  L 40 130  L 40 145  L 55 145  L 55 130  L 60 130  L 60 125  L 70 125  L 70 120  L 75 120  L 75 125  L 80 125  L 80 135  L 85 135  L 85 145  L 95 145  L 95 140  L 100 140  L 100 145  L 105 145  L 105 135  L 100 135  L 100 130  L 105 130  L 105 125  L 115 125  L 115 130  L 120 130  L 120 135  L 130 135  L 130 130  L 125 130  L 125 120  L 130 120  L 130 110  L 125 110  L 125 100  L 130 100  L 130 95  L 120 95  L 120 100  L 100 100  L 100 105  L 85 105  L 85 100  L 95 100  L 95 95  L 85 95  L 85 90  L 90 90  L 90 85  L 65 85  L 65 100  L 60 100  L 60 105  Z M 115 50  L 115 40  L 105 40  L 105 25  L 95 25  L 95 20  L 100 20  L 100 15  L 95 15  L 95 10  L 105 10  L 105 5  L 95 5  L 95 0  L 90 0  L 90 5  L 85 5  L 85 10  L 90 10  L 90 25  L 70 25  L 70 35  L 65 35  L 65 30  L 60 30  L 60 40  L 65 40  L 65 45  L 70 45  L 70 40  L 80 40  L 80 45  L 75 45  L 75 50  L 85 50  L 85 60  L 90 60  L 90 45  L 85 45  L 85 40  L 95 40  L 95 30  L 100 30  L 100 40  L 95 40  L 95 45  L 105 45  L 105 50  L 110 50  L 110 60  L 105 60  L 105 55  L 95 55  L 95 65  L 100 65  L 100 70  L 115 70  L 115 55  L 125 55  L 125 50  L 115 50  Z M 0 110  L 0 145  L 35 145  L 35 110  L 0 110  Z M 35 35  L 35 0  L 0 0  L 0 35  L 35 35  Z M 145 0  L 110 0  L 110 35  L 145 35  L 145 0  Z M 20 95  L 35 95  L 35 90  L 30 90  L 30 85  L 35 85  L 35 80  L 25 80  L 25 85  L 20 85  L 20 90  L 15 90  L 15 95  L 5 95  L 5 100  L 10 100  L 10 105  L 15 105  L 15 100  L 20 100  L 20 95  Z M 55 25  L 55 20  L 60 20  L 60 15  L 55 15  L 55 10  L 60 10  L 60 15  L 65 15  L 65 0  L 60 0  L 60 5  L 50 5  L 50 10  L 40 10  L 40 15  L 45 15  L 45 20  L 50 20  L 50 25  L 55 25  Z M 15 75  L 20 75  L 20 70  L 15 70  L 15 65  L 10 65  L 10 60  L 5 60  L 5 65  L 0 65  L 0 70  L 5 70  L 5 75  L 10 75  L 10 80  L 15 80  L 15 75  Z M 5 80  L 5 75  L 0 75  L 0 85  L 10 85  L 10 80  L 5 80  Z M 135 85  L 130 85  L 130 60  L 125 60  L 125 90  L 135 90  L 135 85  Z M 20 80  L 25 80  L 25 75  L 20 75  L 20 80  Z M 70 65  L 70 75  L 65 75  L 65 60  L 60 60  L 60 65  L 55 65  L 55 70  L 50 70  L 50 65  L 40 65  L 40 80  L 45 80  L 45 75  L 60 75  L 60 80  L 75 80  L 75 65  L 70 65  Z M 85 65  L 85 60  L 75 60  L 75 65  L 80 65  L 80 70  L 85 70  L 85 75  L 80 75  L 80 80  L 90 80  L 90 75  L 95 75  L 95 65  L 85 65  Z M 115 75  L 120 75  L 120 70  L 115 70  L 115 75  Z M 30 70  L 30 75  L 35 75  L 35 70  L 30 70  Z M 110 95  L 115 95  L 115 85  L 120 85  L 120 80  L 110 80  L 110 75  L 100 75  L 100 80  L 95 80  L 95 85  L 100 85  L 100 90  L 110 90  L 110 95  Z M 135 110  L 135 125  L 130 125  L 130 130  L 140 130  L 140 135  L 145 135  L 145 125  L 140 125  L 140 115  L 145 115  L 145 105  L 130 105  L 130 110  L 135 110  Z M 40 100  L 20 100  L 20 105  L 40 105  L 40 100  Z M 135 135  L 135 145  L 145 145  L 145 140  L 140 140  L 140 135  L 135 135  Z M 5 140  L 5 115  L 30 115  L 30 140  L 5 140  Z M 105 120  L 105 105  L 120 105  L 120 120  L 105 120  Z M 50 80  L 50 85  L 55 85  L 55 90  L 60 90  L 60 80  L 50 80  Z M 0 100  L 0 105  L 5 105  L 5 100  L 0 100  Z M 5 90  L 0 90  L 0 95  L 5 95  L 5 90  Z M 135 45  L 135 40  L 130 40  L 130 45  L 135 45  Z M 130 45  L 125 45  L 125 50  L 130 50  L 130 45  Z M 140 45  L 140 50  L 130 50  L 130 55  L 135 55  L 135 65  L 140 65  L 140 70  L 135 70  L 135 85  L 140 85  L 140 90  L 135 90  L 135 100  L 140 100  L 140 95  L 145 95  L 145 80  L 140 80  L 140 75  L 145 75  L 145 60  L 140 60  L 140 55  L 145 55  L 145 45  L 140 45  Z M 140 5  L 140 30  L 115 30  L 115 5  L 140 5  Z M 50 30  L 50 25  L 45 25  L 45 30  L 50 30  Z M 25 45  L 35 45  L 35 50  L 45 50  L 45 40  L 50 40  L 50 50  L 60 50  L 60 40  L 55 40  L 55 30  L 50 30  L 50 35  L 45 35  L 45 30  L 40 30  L 40 40  L 20 40  L 20 45  L 15 45  L 15 40  L 0 40  L 0 45  L 10 45  L 10 50  L 25 50  L 25 45  Z M 35 55  L 35 50  L 25 50  L 25 55  L 35 55  Z M 15 60  L 15 55  L 10 55  L 10 60  L 15 60  Z M 60 55  L 55 55  L 55 60  L 60 60  L 60 55  Z M 15 65  L 20 65  L 20 70  L 25 70  L 25 65  L 40 65  L 40 60  L 45 60  L 45 55  L 35 55  L 35 60  L 25 60  L 25 55  L 20 55  L 20 60  L 15 60  L 15 65  Z M 5 55  L 0 55  L 0 60  L 5 60  L 5 55  Z M 30 5  L 30 30  L 5 30  L 5 5  L 30 5  Z M 50 55  L 50 50  L 45 50  L 45 55  L 50 55  Z M 80 30  L 80 35  L 75 35  L 75 30  L 80 30  Z M 65 25  L 70 25  L 70 20  L 80 20  L 80 15  L 85 15  L 85 10  L 80 10  L 80 0  L 75 0  L 75 5  L 70 5  L 70 15  L 65 15  L 65 25  Z M 55 100  L 60 100  L 60 95  L 55 95  L 55 100  Z M 90 30  L 90 35  L 85 35  L 85 30  L 90 30  Z M 60 135  L 60 145  L 70 145  L 70 135  L 60 135  Z M 75 135  L 75 140  L 80 140  L 80 135  L 75 135  Z M 105 135  L 110 135  L 110 130  L 105 130  L 105 135  Z M 50 0  L 45 0  L 45 5  L 50 5  L 50 0  Z M 75 125  L 70 125  L 70 135  L 75 135  L 75 125  Z M 20 80  L 15 80  L 15 85  L 20 85  L 20 80  Z M 75 55  L 70 55  L 70 50  L 65 50  L 65 60  L 75 60  L 75 55  Z M 50 115  L 50 120  L 45 120  L 45 115  L 50 115  Z M 50 85  L 40 85  L 40 90  L 50 90  L 50 85  Z M 50 135  L 50 140  L 45 140  L 45 135  L 50 135  Z M 60 115  L 60 120  L 55 120  L 55 115  L 60 115  Z M 70 100  L 70 90  L 80 90  L 80 95  L 75 95  L 75 100  L 80 100  L 80 115  L 75 115  L 75 100  L 70 100  Z M 50 90  L 50 95  L 55 95  L 55 90  L 50 90  Z M 110 140  L 110 145  L 130 145  L 130 140  L 110 140  Z M 85 130  L 85 125  L 90 125  L 90 120  L 95 120  L 95 115  L 85 115  L 85 110  L 95 110  L 95 115  L 100 115  L 100 125  L 95 125  L 95 130  L 85 130  Z M 135 25  L 135 10  L 120 10  L 120 25  L 135 25  Z M 25 25  L 25 10  L 10 10  L 10 25  L 25 25  Z M 110 110  L 110 115  L 115 115  L 115 110  L 110 110  Z M 10 120  L 10 135  L 25 135  L 25 120  L 10 120  Z " fill-rule="nonzero" fill="#000000" stroke="none" transform="matrix(1 0 0 1 8 8 )" />
  </g>
</svg>