<?xml version="1.0" encoding="utf-8"?>
<svg version="1.1" xmlns:xlink="http://www.w3.org/1999/xlink" width="45px" height="36px" xmlns="http://www.w3.org/2000/svg">
  <g transform="matrix(1 0 0 1 -28 -32 )">
    <path d="M 44.85 22.8  C 45 25.8  43.6499999999999 28.6499999999999  41.2499999999999 30.7499999999999  L 41.5500000000001 34.3500000000001  C 41.5500000000001 34.8  41.3999999999999 35.2499999999999  41.0999999999999 35.7  C 40.8000000000001 35.85  40.5 36  40.0500000000001 36  C 39.9000000000001 36  39.75 36  39.75 36  L 32.2499999999999 34.1999999999999  C 27.7499999999999 34.05  24.1500000000001 32.9999999999999  21.9000000000001 30.8999999999999  C 20.9999999999999 30.0000000000001  20.25 28.95  19.6500000000001 27.9  C 18.45 28.05  17.4000000000001 28.2  16.05 28.2  L 5.70000000000016 31.9499999999999  C 5.54999999999984 31.9499999999999  5.39999999999986 32.1000000000001  5.24999999999989 32.1000000000001  C 4.95000000000005 32.1000000000001  4.5 31.9499999999999  4.20000000000005 31.8  C 3.75000000000011 31.5  3.60000000000014 30.8999999999999  3.75000000000011 30.3  L 4.95000000000005 23.9999999999999  C 3.60000000000014 22.8  2.39999999999998 21.45  1.65000000000009 19.8000000000001  C 0.450000000000045 17.85  0 16.05  0 13.9499999999999  C 0 10.2  1.79999999999995 6.60000000000002  4.95000000000005 3.89999999999992  C 7.95000000000016 1.49999999999994  12.1499999999999 0  16.3499999999999 0  C 20.25 0  24.0000000000001 1.19999999999999  26.85 3.30000000000001  C 29.7 5.39999999999998  31.8000000000001 8.24999999999994  32.3999999999999 11.4  C 35.5500000000001 11.55  38.5500000000001 12.7499999999999  40.8000000000001 14.7  C 43.3499999999999 16.8  44.85 19.8000000000001  44.85 22.8  Z M 29.5500000000001 11.55  C 28.2 6.60000000000002  22.8 3.00000000000006  16.4999999999999 3.00000000000006  C 9 3.00000000000006  2.99999999999989 7.94999999999999  2.99999999999989 14.1000000000001  C 2.99999999999989 17.1  4.35000000000002 19.8000000000001  6.89999999999998 21.8999999999999  C 7.49999999999989 22.35  7.79999999999984 23.1000000000001  7.64999999999986 23.85  L 6.89999999999998 28.05  L 15.3 25.05  L 15.6 25.05  C 16.6499999999999 25.05  17.7 24.9  18.5999999999999 24.9  C 18.45 24.3000000000001  18.45 23.55  18.45 22.8  C 18.45 19.6499999999999  19.8 16.8  22.5 14.7  C 24.45 13.0500000000001  27 12.0000000000001  29.5500000000001 11.55  Z M 42 22.9499999999999  C 42 18.15  37.35 14.4  31.65 14.4  C 25.95 14.4  21.2999999999998 18.15  21.2999999999998 22.8  C 21.2999999999998 28.2  25.05 31.0500000000001  32.0999999999999 31.2  C 32.3999999999999 31.2  32.5499999999998 31.2  32.8500000000001 31.35  L 38.4 32.7  L 38.25 30.45  C 38.25 29.8500000000001  38.4 29.4  38.8499999999999 28.95  C 40.95 27.3  42 25.1999999999999  42 22.9499999999999  Z M 21.7500000000001 13.9499999999999  C 20.55 13.9499999999999  19.6500000000001 13.0500000000001  19.6500000000001 11.8500000000001  C 19.6500000000001 10.8000000000001  20.55 9.89999999999998  21.7500000000001 9.89999999999998  C 22.95 9.89999999999998  23.8500000000001 10.8000000000001  23.8500000000001 11.8500000000001  C 23.8500000000001 12.8999999999999  22.95 13.9499999999999  21.7500000000001 13.9499999999999  Z M 12.9000000000001 11.6999999999999  C 12.9000000000001 12.7499999999999  11.9999999999999 13.65  10.8 13.65  C 9.59999999999991 13.65  8.70000000000005 12.7499999999999  8.70000000000005 11.6999999999999  C 8.70000000000005 10.6499999999999  9.59999999999991 9.75000000000006  10.8 9.75000000000006  C 11.9999999999999 9.60000000000008  12.9000000000001 10.4999999999999  12.9000000000001 11.6999999999999  Z M 36.45 21.45  C 36.45 22.35  35.7 23.1000000000001  34.8000000000001 23.1000000000001  C 33.9 23.1000000000001  33.1500000000001 22.35  33.1500000000001 21.45  C 33.1500000000001 20.55  33.9 19.8000000000001  34.8000000000001 19.8000000000001  C 35.7 19.8000000000001  36.45 20.55  36.45 21.45  Z M 28.8 21.45  C 28.8 22.35  28.0500000000001 23.1000000000001  27.15 23.1000000000001  C 26.2500000000001 23.1000000000001  25.4999999999999 22.35  25.4999999999999 21.45  C 25.4999999999999 20.55  26.2500000000001 19.8000000000001  27.15 19.8000000000001  C 28.0500000000001 19.8000000000001  28.8 20.55  28.8 21.45  Z " fill-rule="nonzero" fill="#ffffff" stroke="none" fill-opacity="0.6" transform="matrix(1 0 0 1 28 32 )" />
  </g>
</svg>