<?xml version="1.0" encoding="utf-8"?>
<svg version="1.1" xmlns:xlink="http://www.w3.org/1999/xlink" width="30px" height="36px" xmlns="http://www.w3.org/2000/svg">
  <g transform="matrix(1 0 0 1 -35 -32 )">
    <path d="M 30 31.5  C 30 34.05  28.05 36  25.5 36  L 4.5 36  C 1.95000000000005 36  0 34.05  0 31.5  L 0 4.5  C 0 1.95000000000005  1.95000000000005 0  4.5 0  L 25.5 0  C 28.05 0  30 1.95000000000005  30 4.5  L 30 31.5  Z M 27 31.5  L 27 27  L 3 27  L 3 31.5  C 3 32.4  3.60000000000002 33  4.5 33  L 25.5 33  C 26.4 33  27 32.4  27 31.5  Z M 27 24  L 27 4.5  C 27 3.60000000000002  26.4 3  25.5 3  L 4.5 3  C 3.60000000000002 3  3 3.60000000000002  3 4.5  L 3 24  L 27 24  Z M 18 30  C 18 30.9  17.4 31.5  16.5 31.5  L 13.5 31.5  C 12.6 31.5  12 30.9  12 30  C 12 29.1  12.6 28.5  13.5 28.5  L 16.5 28.5  C 17.4 28.5  18 29.1  18 30  Z " fill-rule="nonzero" fill="#ffffff" stroke="none" fill-opacity="0.6" transform="matrix(1 0 0 1 35 32 )" />
  </g>
</svg>