<?xml version="1.0" encoding="utf-8"?>
<svg version="1.1" xmlns:xlink="http://www.w3.org/1999/xlink" width="24px" height="40px" xmlns="http://www.w3.org/2000/svg">
  <g>
    <path d="M 2 12  A 10 10 0 0 1 12 2 A 10 10 0 0 1 22 12 L 22 28  A 10 10 0 0 1 12 38 A 10 10 0 0 1 2 28 L 2 12  Z " fill-rule="nonzero" fill="#f2f2f2" stroke="none" fill-opacity="0" />
    <path d="M 1 12  A 11 11 0 0 1 12 1 A 11 11 0 0 1 23 12 L 23 28  A 11 11 0 0 1 12 39 A 11 11 0 0 1 1 28 L 1 12  Z " stroke-width="2" stroke="#ffffff" fill="none" stroke-opacity="0.298039215686275" />
  </g>
</svg>