<?xml version="1.0" encoding="utf-8"?>
<svg version="1.1" xmlns:xlink="http://www.w3.org/1999/xlink" width="153px" height="160px" xmlns="http://www.w3.org/2000/svg">
  <g transform="matrix(1 0 0 1 20 60 )">
    <path d="M 118.969490713443 84  L 148.120268278302 84  C 148.120268278302 84.8192771084337  150.101555129717 84.5357680722892  150.950678066038 85.1027861445783  C 152.082654038915 85.6698042168675  151.799613060142 85.953313253012  151.799613060142 86.5203313253012  C 150.384408166274 127.058734939759  116.422309846698 159.376317771084  75.9504569575472 159.376317771084  C 34.912897995283 159.376317771084  0.101488797169818 125.924887048193  0.101488797169818 83.96875  C 0.101488797169818 46.832078313253  26.9883144162736 15.648531626506  63.4977815448113 9.41170933734939  C 67.4599793632076 8.84487951807228  78.2147847877359 7.9941641566265  87.8374262971698 17.632718373494  L 133.403265035377 62.7074548192771  L 117.554097877358 78.5828313253012  C 117.554097877358 78.5828313253012  115.289957989387 80.2836972891566  113.874941037736 80.000188253012  C 112.459736143868 79.7166792168675  111.04453125 78.0158132530121  111.04453125 78.0158132530121  L 77.0826208726415 44.2806852409639  C 76.5165389150943 43.7136671686747  75.6674159787736 43.7136671686747  75.1015219634434 44.2806852409639  L 36.6109559257075 82.5513930722892  C 36.0448739681604 83.1184111445783  36.0448739681604 83.968938253012  36.6109559257075 84.5357680722892  L 75.384562942217 122.52296686747  C 75.9504569575471 123.089984939759  76.7997678360849 123.089984939759  77.3654739091981 122.52296686747  L 113.875128979953 86.8038403614458  C 113.875128979953 86.8038403614458  115.573186910377 85.3862951807229  116.139268867925 85.1027861445783  C 116.988203862028 84.8192771084338  118.969490713443 84.8192771084338  118.969490713443 84  Z M 140.195872641509 55.9036144578313  L 100.007060731132 16.2153614457831  C 88.6863612912736 3.45858433734941  78.2147847877359 3.17507530120483  78.2147847877359 3.17507530120483  C 78.2147847877359 3.17507530120483  104.252299528302 -7.88102409638553  127.176927329009 15.0815135542169  L 151.516572081368 39.4614081325301  C 151.516572081368 39.4614081325301  153.214630011793 40.878953313253  152.931776975236 41.7292921686747  C 152.365695017689 43.4301581325301  151.516572081368 45.1310240963856  151.516572081368 45.1310240963856  L 140.195872641509 55.9036144578313  Z " fill-rule="nonzero" fill="#6973f0" stroke="none" fill-opacity="0.4" transform="matrix(1 0 0 1 -20 -60 )" />
  </g>
</svg>