<?xml version="1.0" encoding="utf-8"?>
<svg version="1.1" xmlns:xlink="http://www.w3.org/1999/xlink" width="160px" height="160px" xmlns="http://www.w3.org/2000/svg">
  <g transform="matrix(1 0 0 1 20 60 )">
    <path d="M 83.86720765625 0  L 76.46191640625 0  L 73 0.3428375  L 73 48.06582484375  L 73.09296609375 49.4074625  L 73.42666140625 49.74572875  L 73.42666140625 50.4222615625  L 74.09862296875 50.4222615625  L 74.44374609375 50.755956875  L 75.44940296875 51.08965203125  L 84.87972109375 51.08965203125  L 85.8968059375 50.755956875  L 86.23050109375 50.4222615625  L 86.5687675 50.4222615625  L 86.90703390625 49.74572875  L 87 49.4074625  L 87 0.3428375  L 83.86720765625 0  Z M 96.6756185937501 5.04656875000002  L 96 5.044283125  L 96 52.76727046875  L 95.9922290625 53.7774984375  L 95.32026734375 54.11576484375  L 94.314610625 54.44946  L 92.96611625 54.79229765625  L 83.869493125 54.79229765625  L 83.2021028125 55.1259928125  L 82.86383640625 55.79566875  L 82 56.4722015625  L 82 79.66401921875  L 82.86383640625 79.3257528125  L 83.2021028125 79  L 103.07068171875 79  L 104.4214615625 78.65379125  L 105.09570875 78.65379125  L 105.76309921875 78.31552484375  L 106.101365625 77.64356328125  L 106.43963203125 77.305296875  L 106 76.63562078125  L 106 21.51191359375  L 110.8188103125 23.5300840625  L 114.85743671875 25.88423515625  L 118.5692246875 28.5743671875  L 121.92903265625 31.25764234375  L 125.29569734375 34.28375515625  L 128.3309525 37.64584875  L 131.3593509375 41.348494375  L 134.06091078125 44.70830234375  L 136.07451 48.74235765625  L 138.43780359375 52.76955609375  L 140.11542203125 57.14187765625  L 140.80109703125 59.16004796875  L 141.466201875 61.1759328125  L 142.81469625 65.88423515625  L 143.820353125 70.59025203125  L 143.820353125 72.94211765625  L 144.167761875 75.293983125  L 144.50145703125 79.997714375  L 144.167761875 86.04536890625  L 143.820353125 89.0737671875  L 143.1461059375 91.76618484375  L 142.81241078125 94.79001203125  L 141.80675390625 97.4755728125  L 140.11542203125 102.855836875  L 139.10976515625 105.54596875  L 137.76127078125 108.23610078125  L 136.4082053125 110.5833953125  L 135.06885328125 113.2735271875  L 133.722644375 115.6276784375  L 132.0313125 117.9795440625  L 130.3536940625 119.997714375  L 128.3309525 122.351865625  L 126.6510484375 124.3700359375  L 124.62373578125 126.3790640625  L 120.24684296875 130.08399515625  L 117.88583515625 131.75932796875  L 115.8676646875 133.44151765625  L 113.50894234375 134.7831553125  L 110.8188103125 136.1316496875  L 108.46008796875 137.4732871875  L 105.76081359375 138.81721046875  L 103.06839609375 139.8274384375  L 101.7244728125 140.50397125  L 100.3828353125 140.83538078125  L 97.6812753125 141.5073425  L 94.9842865625 142.51757046875  L 91.95131703125 142.855836875  L 89 143.5277984375  L 89 105  L 103.06839609375 105  L 104.41917609375 105.54596875  L 105.09342328125 105.20770234375  L 105.76081359375 105.20770234375  L 106.09908 104.53574078125  L 106.43734640625 104.197474375  L 106 103.5277984375  L 106 79.66630484375  L 106.09908 80.33598078125  L 105.09342328125 81.00794234375  L 104.0809096875 81.34620875  L 103.06839609375 81  L 83.86720765625 81  L 83.1998171875 82.0181703125  L 82.86155078125 82.69013203125  L 82 83.35980796875  L 82 105.54596875  L 78 105.54596875  L 78 82.69013203125  L 76.79561171875 82.0181703125  L 76.12365 81  L 56.9270328125 81  L 55.90994796875 81.34620875  L 54.90429125 81.00794234375  L 53.898634375 80.33598078125  L 53.555796875 79.997714375  L 54 79.66630484375  L 54 102.5221415625  L 53.55808234375 103.5277984375  L 53.55808234375 104.197474375  L 53.89634875 104.53574078125  L 54.5683103125 105.20770234375  L 55.23798640625 105.20770234375  L 55.5762528125 105.54596875  L 56.9247471875 105  L 71 105  L 71 143.5277984375  L 68.04411171875 142.855836875  L 65.342551875 142.51757046875  L 62.645563125 141.5073425  L 59.62859265625 140.83538078125  L 56.9270328125 139.8274384375  L 54.2300440625 138.81721046875  L 51.86903609375 137.4732871875  L 49.1811896875 136.1316496875  L 44.463745 133.44151765625  L 42.10959375 131.75932796875  L 39.74858578125 130.08399515625  L 35.70767390625 126.3790640625  L 33.68264671875 124.3700359375  L 31.66447625 122.351865625  L 29.97543 119.997714375  L 28.2955259375 117.64584875  L 24.926575625 113.2735271875  L 22.229586875 108.23610078125  L 21.21935890625 105.54596875  L 20.21827328125 102.855836875  L 19.54402609375 101.51191359375  L 19.2011884375 100.16341921875  L 18.188675 97.4755728125  L 17.52128453125 94.79001203125  L 16.84932296875 91.76618484375  L 16.5110565625 88.73778640625  L 16.17507578125 86.04536890625  L 15.84138046875 83.0283984375  L 15.84138046875 79.99542890625  L 16.17507578125 75.29169765625  L 16.17507578125 72.93754640625  L 16.5110565625 70.58796640625  L 17.52128453125 65.88194953125  L 18.52694125 61.51191359375  L 20.21827328125 57.13959203125  L 20.89023484375 54.79229765625  L 21.89589171875 52.76727046875  L 23.92091875 48.74007203125  L 26.26821328125 45.044283125  L 28.969773125 41.34392328125  L 31.666761875 37.64356328125  L 34.69973140625 34.28375515625  L 38.06868171875 31.25764234375  L 41.77132734375 28.5743671875  L 45.4785440625 25.88194953125  L 49.1811896875 23.5300840625  L 54 21.51191359375  L 54 75.6299640625  L 53.55808234375 76.63562078125  L 53.55808234375 77.305296875  L 53.89634875 77.64356328125  L 54.5683103125 78.31552484375  L 54.902005625 78.65379125  L 55.5762528125 78.65379125  L 56.9247471875 79  L 76.79561171875 79  L 78 79.66401921875  L 78 55.79566875  L 76.79561171875 55.1259928125  L 76.12365 54.79229765625  L 67.03388375 54.79229765625  L 66.0167990625 54.44946  L 65.0157134375 54.11576484375  L 64.00319984375 53.7774984375  L 63.6649334375 53.448374375  L 64 52.76727046875  L 64 1.68218953125  L 59.9622878125 2.6924175  L 56.5933375 3.702645625  L 53.2243871875 4.70830234375  L 50.18913203125 5.71624484375  L 47.158448125 7.05788234375  L 44.12319296875 8.74007203125  L 41.103936875 10.08856640625  L 38.06868171875 11.7684703125  L 35.37169296875 13.78206953125  L 32.674704375 15.797954375  L 27.28986921875 19.8297240625  L 24.926575625 22.18844640625  L 22.57013890625 24.54031203125  L 20.21598765625 26.894463125  L 18.188675 29.244043125  L 16.17736125 31.93417515625  L 14.15233421875 34.6197359375  L 12.13416375 37.64356328125  L 10.44511734375 40.33598078125  L 8.76521343749999 43.36437921875  L 7.41671906249999 46.3813496875  L 6.06365343749999 49.405176875  L 4.72430140624999 52.76727046875  L 2.69470312499999 59.15776234375  L 2.02731265624999 62.5198559375  L 1.35535109374999 65.88194953125  L 0.676532812499985 69.244043125  L 0.338266406249985 72.93983203125  L 0.00457109375 76.29964  L 0.00457109375 84.0317696875  L 0.33826640625 88.0703959375  L 1.0216559375 92.097594375  L 1.68904640625 96.1316496875  L 2.694703125 99.83200953125  L 3.70721671875 103.86606484375  L 5.05571109375 107.55956796875  L 6.40420546875 110.9216615625  L 8.093251875 114.61745046875  L 9.77315578125 117.9772584375  L 11.79589734375 121.34163765625  L 13.8140678125 124.701445625  L 15.84138046875 127.73212953125  L 18.188675 130.755956875  L 20.89023484375 133.7797840625  L 23.58722359375 136.46534484375  L 26.26821328125 139.155476875  L 29.30803953125 141.50962796875  L 32.3387234375 143.85920796875  L 35.37169296875 146.21793046875  L 38.7406434375 148.2315296875  L 42.10959375 150.2497  L 45.4785440625 151.9273184375  L 48.847494375 153.6072225  L 52.55014 154.951145625  L 56.25964234375 156.29964  L 59.9622878125 157.3075825  L 64.00319984375 158.31323921875  L 68.04411171875 158.98748640625  L 72.0804525 159.32118171875  L 76.12365 159.65944796875  L 80.169133125 159.99314328125  L 84.20547390625 159.65944796875  L 88.2486715625 159.32118171875  L 92.28501234375 158.98748640625  L 96.3373521875 158.31323921875  L 100.04456890625 157.3075825  L 103.7357865625 156.297354375  L 107.78812640625 154.94886  L 111.15707671875 153.6072225  L 114.85515109375 151.9273184375  L 118.22410140625 150.2497  L 121.593051875 148.2315296875  L 124.9620021875 146.21793046875  L 127.99268609375 143.85920796875  L 131.025655625 141.5073425  L 134.06091078125 139.15319125  L 136.75789953125 136.46534484375  L 139.4434603125 133.7797840625  L 141.80675390625 130.755956875  L 144.167761875 127.73212953125  L 146.51505625 124.70373125  L 148.54465453125 121.34163765625  L 150.55596828125 117.9795440625  L 152.24730015625 114.61745046875  L 153.92491859375 110.9216615625  L 155.2825553125 107.56185359375  L 156.62190734375 103.86606484375  L 157.6344209375 99.83200953125  L 158.64007765625 96.1316496875  L 159.3234671875 92.097594375  L 159.6571625 88.0703959375  L 160 84.0317696875  L 160 72.94211765625  L 159.3234671875 69.24632875  L 158.98520078125 65.88652078125  L 158.29952578125 62.5221415625  L 157.29386890625 59.16233359375  L 155.2825553125 52.76955609375  L 154.26547046875 49.40974796875  L 152.91926171875 46.38363515625  L 149.55031140625 40.33826640625  L 147.85897953125 37.64584875  L 146.18136109375 34.6220215625  L 144.1700475 31.93646078125  L 142.1404490625 29.24632875  L 137.75898515625 24.5425975  L 135.4025484375 22.18844640625  L 132.7055596875 19.83429515625  L 130.3536940625 17.4801440625  L 127.6567053125 15.46654484375  L 124.9597165625 13.78435515625  L 121.92674703125 11.7730415625  L 119.236615 10.090851875  L 116.20593109375 8.74235765625002  L 113.1752471875 7.06016796875002  L 109.80629671875 5.71853031250002  L 106.77104171875 4.70830234375002  L 103.40209125 3.70264562500002  L 96.6756185937501 1.68447515625002  L 96.6756185937501 5.04656875000002  Z " fill-rule="nonzero" fill="#41aa9b" stroke="none" fill-opacity="0.6" transform="matrix(1 0 0 1 -20 -60 )" />
  </g>
</svg>