<?xml version="1.0" encoding="utf-8"?>
<svg version="1.1" xmlns:xlink="http://www.w3.org/1999/xlink" width="8px" height="14px" xmlns="http://www.w3.org/2000/svg">
  <g>
    <path d="M 7.65351598388662 7.50808443847654  C 7.69999412109371 7.45937206054691  7.72460018066397 7.39975306396479  7.75632055419919 7.34398517822274  C 7.76508113281244 7.32702256835933  7.77928033203125 7.31282336914057  7.78695319335935 7.29530221191408  C 7.93735301269527 6.98247884277339  7.88811146484369 6.59968838867189  7.62179562744132 6.3481009033203  L 1.58484243408208 0.638199672851556  C 1.25561501953126 0.327022585449185  0.73665333984377 0.341780349121109  0.424917687988284 0.670478593749976  C 0.113740600585913 0.999706008300791  0.127969194335947 1.51866768798834  0.457196608886704 1.83040333984377  L 5.8740004736328 6.95460959716797  L 0.478510104980444 12.1548388964844  C 0.152575253906264 12.469279152832  0.142726940917953 12.9882702270509  0.457196608886704 13.3147636425781  C 0.617973894042962 13.4820966601562  0.832902160644551 13.5657925634765  1.04783042724608 13.5657925634765  C 1.25291039794922 13.5657925634765  1.4579903515625 13.4892403515626  1.6171213549805 13.3361065332031  L 7.59939439697257 7.57040803955078  C 7.61088899169914 7.55891344482427  7.61523987792964 7.5430679638672  7.62673447265621 7.5310442163086  C 7.63549505126946 7.52284220214847  7.6447847998046 7.51681562255862  7.65351598388662 7.50808443847654  Z " fill-rule="nonzero" fill="#cccccc" stroke="none" />
  </g>
</svg>